solid
 facet normal  9.993628e-001  3.569233e-002  0.000000e+000
   outer loop
     vertex  1.994904e+000  1.426784e-001  1.000000e+001
     vertex  2.000000e+000 -4.898587e-016  1.000000e+001
     vertex  2.000000e+000 -4.898587e-016  0.000000e+000
   endloop
 endfacet
 facet normal  9.993628e-001  3.569233e-002  0.000000e+000
   outer loop
     vertex  1.994904e+000  1.426784e-001  1.000000e+001
     vertex  2.000000e+000 -4.898587e-016  0.000000e+000
     vertex  1.994904e+000  1.426784e-001  0.000000e+000
   endloop
 endfacet
 facet normal  9.942703e-001  1.068951e-001  0.000000e+000
   outer loop
     vertex  1.979643e+000  2.846297e-001  1.000000e+001
     vertex  1.994904e+000  1.426784e-001  1.000000e+001
     vertex  1.994904e+000  1.426784e-001  0.000000e+000
   endloop
 endfacet
 facet normal  9.942703e-001  1.068951e-001  0.000000e+000
   outer loop
     vertex  1.979643e+000  2.846297e-001  1.000000e+001
     vertex  1.994904e+000  1.426784e-001  0.000000e+000
     vertex  1.979643e+000  2.846297e-001  0.000000e+000
   endloop
 endfacet
 facet normal  9.841112e-001  1.775532e-001  0.000000e+000
   outer loop
     vertex  1.979643e+000  2.846297e-001  1.000000e+001
     vertex  1.979643e+000  2.846297e-001  0.000000e+000
     vertex  1.954294e+000  4.251306e-001  0.000000e+000
   endloop
 endfacet
 facet normal  9.841112e-001  1.775532e-001  0.000000e+000
   outer loop
     vertex  1.954294e+000  4.251306e-001  1.000000e+001
     vertex  1.979643e+000  2.846297e-001  1.000000e+001
     vertex  1.954294e+000  4.251306e-001  0.000000e+000
   endloop
 endfacet
 facet normal  9.689373e-001  2.473065e-001  0.000000e+000
   outer loop
     vertex  1.918986e+000  5.634651e-001  1.000000e+001
     vertex  1.954294e+000  4.251306e-001  0.000000e+000
     vertex  1.918986e+000  5.634651e-001  0.000000e+000
   endloop
 endfacet
 facet normal  9.488259e-001  3.157996e-001  0.000000e+000
   outer loop
     vertex  1.918986e+000  5.634651e-001  1.000000e+001
     vertex  1.918986e+000  5.634651e-001  0.000000e+000
     vertex  1.873899e+000  6.989284e-001  0.000000e+000
   endloop
 endfacet
 facet normal  9.689373e-001  2.473065e-001  0.000000e+000
   outer loop
     vertex  1.918986e+000  5.634651e-001  1.000000e+001
     vertex  1.954294e+000  4.251306e-001  1.000000e+001
     vertex  1.954294e+000  4.251306e-001  0.000000e+000
   endloop
 endfacet
 facet normal  9.488259e-001  3.157996e-001  0.000000e+000
   outer loop
     vertex  1.873899e+000  6.989284e-001  1.000000e+001
     vertex  1.918986e+000  5.634651e-001  1.000000e+001
     vertex  1.873899e+000  6.989284e-001  0.000000e+000
   endloop
 endfacet
 facet normal  9.238795e-001  3.826834e-001  0.000000e+000
   outer loop
     vertex  1.819264e+000  8.308300e-001  1.000000e+001
     vertex  1.873899e+000  6.989284e-001  1.000000e+001
     vertex  1.873899e+000  6.989284e-001  0.000000e+000
   endloop
 endfacet
 facet normal  9.238795e-001  3.826834e-001  0.000000e+000
   outer loop
     vertex  1.819264e+000  8.308300e-001  1.000000e+001
     vertex  1.873899e+000  6.989284e-001  0.000000e+000
     vertex  1.819264e+000  8.308300e-001  0.000000e+000
   endloop
 endfacet
 facet normal  8.942253e-001  4.476172e-001  0.000000e+000
   outer loop
     vertex  1.755358e+000  9.584980e-001  1.000000e+001
     vertex  1.819264e+000  8.308300e-001  1.000000e+001
     vertex  1.819264e+000  8.308300e-001  0.000000e+000
   endloop
 endfacet
 facet normal  8.942253e-001  4.476172e-001  0.000000e+000
   outer loop
     vertex  1.755358e+000  9.584980e-001  1.000000e+001
     vertex  1.819264e+000  8.308300e-001  0.000000e+000
     vertex  1.755358e+000  9.584980e-001  0.000000e+000
   endloop
 endfacet
 facet normal  8.600142e-001  5.102700e-001  0.000000e+000
   outer loop
     vertex  1.682507e+000  1.081282e+000  1.000000e+001
     vertex  1.755358e+000  9.584980e-001  1.000000e+001
     vertex  1.755358e+000  9.584980e-001  0.000000e+000
   endloop
 endfacet
 facet normal  8.600142e-001  5.102700e-001  0.000000e+000
   outer loop
     vertex  1.682507e+000  1.081282e+000  1.000000e+001
     vertex  1.755358e+000  9.584980e-001  0.000000e+000
     vertex  1.682507e+000  1.081282e+000  0.000000e+000
   endloop
 endfacet
 facet normal  8.214208e-001  5.703226e-001  0.000000e+000
   outer loop
     vertex  1.601082e+000  1.198555e+000  1.000000e+001
     vertex  1.682507e+000  1.081282e+000  1.000000e+001
     vertex  1.682507e+000  1.081282e+000  0.000000e+000
   endloop
 endfacet
 facet normal  8.214208e-001  5.703226e-001  0.000000e+000
   outer loop
     vertex  1.601082e+000  1.198555e+000  1.000000e+001
     vertex  1.682507e+000  1.081282e+000  0.000000e+000
     vertex  1.601082e+000  1.198555e+000  0.000000e+000
   endloop
 endfacet
 facet normal  7.786415e-001  6.274690e-001  0.000000e+000
   outer loop
     vertex  1.511499e+000  1.309721e+000  1.000000e+001
     vertex  1.601082e+000  1.198555e+000  1.000000e+001
     vertex  1.601082e+000  1.198555e+000  0.000000e+000
   endloop
 endfacet
 facet normal  7.786415e-001  6.274690e-001  0.000000e+000
   outer loop
     vertex  1.511499e+000  1.309721e+000  1.000000e+001
     vertex  1.601082e+000  1.198555e+000  0.000000e+000
     vertex  1.511499e+000  1.309721e+000  0.000000e+000
   endloop
 endfacet
 facet normal  7.318945e-001  6.814179e-001  0.000000e+000
   outer loop
     vertex  1.414214e+000  1.414214e+000  1.000000e+001
     vertex  1.511499e+000  1.309721e+000  1.000000e+001
     vertex  1.511499e+000  1.309721e+000  0.000000e+000
   endloop
 endfacet
 facet normal  7.318945e-001  6.814179e-001  0.000000e+000
   outer loop
     vertex  1.414214e+000  1.414214e+000  1.000000e+001
     vertex  1.511499e+000  1.309721e+000  0.000000e+000
     vertex  1.414214e+000  1.414214e+000  0.000000e+000
   endloop
 endfacet
 facet normal  6.814179e-001  7.318945e-001  0.000000e+000
   outer loop
     vertex  1.309721e+000  1.511499e+000  1.000000e+001
     vertex  1.414214e+000  1.414214e+000  0.000000e+000
     vertex  1.309721e+000  1.511499e+000  0.000000e+000
   endloop
 endfacet
 facet normal  6.814179e-001  7.318945e-001  0.000000e+000
   outer loop
     vertex  1.309721e+000  1.511499e+000  1.000000e+001
     vertex  1.414214e+000  1.414214e+000  1.000000e+001
     vertex  1.414214e+000  1.414214e+000  0.000000e+000
   endloop
 endfacet
 facet normal  6.274690e-001  7.786415e-001  0.000000e+000
   outer loop
     vertex  1.198555e+000  1.601082e+000  1.000000e+001
     vertex  1.309721e+000  1.511499e+000  0.000000e+000
     vertex  1.198555e+000  1.601082e+000  0.000000e+000
   endloop
 endfacet
 facet normal  6.274690e-001  7.786415e-001  0.000000e+000
   outer loop
     vertex  1.198555e+000  1.601082e+000  1.000000e+001
     vertex  1.309721e+000  1.511499e+000  1.000000e+001
     vertex  1.309721e+000  1.511499e+000  0.000000e+000
   endloop
 endfacet
 facet normal  5.703226e-001  8.214208e-001  0.000000e+000
   outer loop
     vertex  1.081282e+000  1.682507e+000  1.000000e+001
     vertex  1.198555e+000  1.601082e+000  0.000000e+000
     vertex  1.081282e+000  1.682507e+000  0.000000e+000
   endloop
 endfacet
 facet normal  5.703226e-001  8.214208e-001  0.000000e+000
   outer loop
     vertex  1.081282e+000  1.682507e+000  1.000000e+001
     vertex  1.198555e+000  1.601082e+000  1.000000e+001
     vertex  1.198555e+000  1.601082e+000  0.000000e+000
   endloop
 endfacet
 facet normal  5.102700e-001  8.600142e-001  0.000000e+000
   outer loop
     vertex  9.584980e-001  1.755358e+000  1.000000e+001
     vertex  1.081282e+000  1.682507e+000  0.000000e+000
     vertex  9.584980e-001  1.755358e+000  0.000000e+000
   endloop
 endfacet
 facet normal  5.102700e-001  8.600142e-001  0.000000e+000
   outer loop
     vertex  9.584980e-001  1.755358e+000  1.000000e+001
     vertex  1.081282e+000  1.682507e+000  1.000000e+001
     vertex  1.081282e+000  1.682507e+000  0.000000e+000
   endloop
 endfacet
 facet normal  4.476172e-001  8.942253e-001  0.000000e+000
   outer loop
     vertex  8.308300e-001  1.819264e+000  1.000000e+001
     vertex  9.584980e-001  1.755358e+000  0.000000e+000
     vertex  8.308300e-001  1.819264e+000  0.000000e+000
   endloop
 endfacet
 facet normal  4.476172e-001  8.942253e-001  0.000000e+000
   outer loop
     vertex  8.308300e-001  1.819264e+000  1.000000e+001
     vertex  9.584980e-001  1.755358e+000  1.000000e+001
     vertex  9.584980e-001  1.755358e+000  0.000000e+000
   endloop
 endfacet
 facet normal  3.826834e-001  9.238795e-001  0.000000e+000
   outer loop
     vertex  6.989284e-001  1.873899e+000  1.000000e+001
     vertex  8.308300e-001  1.819264e+000  0.000000e+000
     vertex  6.989284e-001  1.873899e+000  0.000000e+000
   endloop
 endfacet
 facet normal  3.826834e-001  9.238795e-001  0.000000e+000
   outer loop
     vertex  6.989284e-001  1.873899e+000  1.000000e+001
     vertex  8.308300e-001  1.819264e+000  1.000000e+001
     vertex  8.308300e-001  1.819264e+000  0.000000e+000
   endloop
 endfacet
 facet normal  3.157996e-001  9.488259e-001  0.000000e+000
   outer loop
     vertex  5.634651e-001  1.918986e+000  1.000000e+001
     vertex  6.989284e-001  1.873899e+000  0.000000e+000
     vertex  5.634651e-001  1.918986e+000  0.000000e+000
   endloop
 endfacet
 facet normal  3.157996e-001  9.488259e-001  0.000000e+000
   outer loop
     vertex  5.634651e-001  1.918986e+000  1.000000e+001
     vertex  6.989284e-001  1.873899e+000  1.000000e+001
     vertex  6.989284e-001  1.873899e+000  0.000000e+000
   endloop
 endfacet
 facet normal  2.473065e-001  9.689373e-001  0.000000e+000
   outer loop
     vertex  4.251306e-001  1.954294e+000  1.000000e+001
     vertex  5.634651e-001  1.918986e+000  0.000000e+000
     vertex  4.251306e-001  1.954294e+000  0.000000e+000
   endloop
 endfacet
 facet normal  2.473065e-001  9.689373e-001  0.000000e+000
   outer loop
     vertex  4.251306e-001  1.954294e+000  1.000000e+001
     vertex  5.634651e-001  1.918986e+000  1.000000e+001
     vertex  5.634651e-001  1.918986e+000  0.000000e+000
   endloop
 endfacet
 facet normal  1.775532e-001  9.841112e-001  0.000000e+000
   outer loop
     vertex  2.846297e-001  1.979643e+000  1.000000e+001
     vertex  4.251306e-001  1.954294e+000  0.000000e+000
     vertex  2.846297e-001  1.979643e+000  0.000000e+000
   endloop
 endfacet
 facet normal  1.775532e-001  9.841112e-001  0.000000e+000
   outer loop
     vertex  2.846297e-001  1.979643e+000  1.000000e+001
     vertex  4.251306e-001  1.954294e+000  1.000000e+001
     vertex  4.251306e-001  1.954294e+000  0.000000e+000
   endloop
 endfacet
 facet normal  1.068951e-001  9.942703e-001  0.000000e+000
   outer loop
     vertex  1.426784e-001  1.994904e+000  1.000000e+001
     vertex  2.846297e-001  1.979643e+000  0.000000e+000
     vertex  1.426784e-001  1.994904e+000  0.000000e+000
   endloop
 endfacet
 facet normal  1.068951e-001  9.942703e-001  0.000000e+000
   outer loop
     vertex  1.426784e-001  1.994904e+000  1.000000e+001
     vertex  2.846297e-001  1.979643e+000  1.000000e+001
     vertex  2.846297e-001  1.979643e+000  0.000000e+000
   endloop
 endfacet
 facet normal  3.569233e-002  9.993628e-001  0.000000e+000
   outer loop
     vertex  5.665539e-016  2.000000e+000  1.000000e+001
     vertex  1.426784e-001  1.994904e+000  0.000000e+000
     vertex  5.665539e-016  2.000000e+000  0.000000e+000
   endloop
 endfacet
 facet normal  3.569233e-002  9.993628e-001  0.000000e+000
   outer loop
     vertex  5.665539e-016  2.000000e+000  1.000000e+001
     vertex  1.426784e-001  1.994904e+000  1.000000e+001
     vertex  1.426784e-001  1.994904e+000  0.000000e+000
   endloop
 endfacet
 facet normal -3.569233e-002  9.993628e-001  0.000000e+000
   outer loop
     vertex -1.426784e-001  1.994904e+000  1.000000e+001
     vertex  5.665539e-016  2.000000e+000  0.000000e+000
     vertex -1.426784e-001  1.994904e+000  0.000000e+000
   endloop
 endfacet
 facet normal -3.569233e-002  9.993628e-001  0.000000e+000
   outer loop
     vertex -1.426784e-001  1.994904e+000  1.000000e+001
     vertex  5.665539e-016  2.000000e+000  1.000000e+001
     vertex  5.665539e-016  2.000000e+000  0.000000e+000
   endloop
 endfacet
 facet normal -1.068951e-001  9.942703e-001  0.000000e+000
   outer loop
     vertex -2.846297e-001  1.979643e+000  1.000000e+001
     vertex -1.426784e-001  1.994904e+000  0.000000e+000
     vertex -2.846297e-001  1.979643e+000  0.000000e+000
   endloop
 endfacet
 facet normal -1.068951e-001  9.942703e-001  0.000000e+000
   outer loop
     vertex -2.846297e-001  1.979643e+000  1.000000e+001
     vertex -1.426784e-001  1.994904e+000  1.000000e+001
     vertex -1.426784e-001  1.994904e+000  0.000000e+000
   endloop
 endfacet
 facet normal -1.775532e-001  9.841112e-001  0.000000e+000
   outer loop
     vertex -4.251306e-001  1.954294e+000  1.000000e+001
     vertex -2.846297e-001  1.979643e+000  0.000000e+000
     vertex -4.251306e-001  1.954294e+000  0.000000e+000
   endloop
 endfacet
 facet normal -1.775532e-001  9.841112e-001  0.000000e+000
   outer loop
     vertex -4.251306e-001  1.954294e+000  1.000000e+001
     vertex -2.846297e-001  1.979643e+000  1.000000e+001
     vertex -2.846297e-001  1.979643e+000  0.000000e+000
   endloop
 endfacet
 facet normal -2.473065e-001  9.689373e-001  0.000000e+000
   outer loop
     vertex -5.634651e-001  1.918986e+000  1.000000e+001
     vertex -4.251306e-001  1.954294e+000  0.000000e+000
     vertex -5.634651e-001  1.918986e+000  0.000000e+000
   endloop
 endfacet
 facet normal -2.473065e-001  9.689373e-001  0.000000e+000
   outer loop
     vertex -5.634651e-001  1.918986e+000  1.000000e+001
     vertex -4.251306e-001  1.954294e+000  1.000000e+001
     vertex -4.251306e-001  1.954294e+000  0.000000e+000
   endloop
 endfacet
 facet normal -3.157996e-001  9.488259e-001  0.000000e+000
   outer loop
     vertex -6.989284e-001  1.873899e+000  1.000000e+001
     vertex -5.634651e-001  1.918986e+000  0.000000e+000
     vertex -6.989284e-001  1.873899e+000  0.000000e+000
   endloop
 endfacet
 facet normal -3.157996e-001  9.488259e-001  0.000000e+000
   outer loop
     vertex -6.989284e-001  1.873899e+000  1.000000e+001
     vertex -5.634651e-001  1.918986e+000  1.000000e+001
     vertex -5.634651e-001  1.918986e+000  0.000000e+000
   endloop
 endfacet
 facet normal -3.826834e-001  9.238795e-001  0.000000e+000
   outer loop
     vertex -8.308300e-001  1.819264e+000  1.000000e+001
     vertex -6.989284e-001  1.873899e+000  0.000000e+000
     vertex -8.308300e-001  1.819264e+000  0.000000e+000
   endloop
 endfacet
 facet normal -3.826834e-001  9.238795e-001  0.000000e+000
   outer loop
     vertex -8.308300e-001  1.819264e+000  1.000000e+001
     vertex -6.989284e-001  1.873899e+000  1.000000e+001
     vertex -6.989284e-001  1.873899e+000  0.000000e+000
   endloop
 endfacet
 facet normal -4.476172e-001  8.942253e-001  0.000000e+000
   outer loop
     vertex -9.584980e-001  1.755358e+000  1.000000e+001
     vertex -8.308300e-001  1.819264e+000  0.000000e+000
     vertex -9.584980e-001  1.755358e+000  0.000000e+000
   endloop
 endfacet
 facet normal -4.476172e-001  8.942253e-001  0.000000e+000
   outer loop
     vertex -9.584980e-001  1.755358e+000  1.000000e+001
     vertex -8.308300e-001  1.819264e+000  1.000000e+001
     vertex -8.308300e-001  1.819264e+000  0.000000e+000
   endloop
 endfacet
 facet normal -5.102700e-001  8.600142e-001  0.000000e+000
   outer loop
     vertex -1.081282e+000  1.682507e+000  1.000000e+001
     vertex -9.584980e-001  1.755358e+000  1.000000e+001
     vertex -9.584980e-001  1.755358e+000  0.000000e+000
   endloop
 endfacet
 facet normal -5.102700e-001  8.600142e-001  0.000000e+000
   outer loop
     vertex -1.081282e+000  1.682507e+000  1.000000e+001
     vertex -9.584980e-001  1.755358e+000  0.000000e+000
     vertex -1.081282e+000  1.682507e+000  0.000000e+000
   endloop
 endfacet
 facet normal -5.703226e-001  8.214208e-001  0.000000e+000
   outer loop
     vertex -1.198555e+000  1.601082e+000  1.000000e+001
     vertex -1.081282e+000  1.682507e+000  1.000000e+001
     vertex -1.081282e+000  1.682507e+000  0.000000e+000
   endloop
 endfacet
 facet normal -5.703226e-001  8.214208e-001  0.000000e+000
   outer loop
     vertex -1.198555e+000  1.601082e+000  1.000000e+001
     vertex -1.081282e+000  1.682507e+000  0.000000e+000
     vertex -1.198555e+000  1.601082e+000  0.000000e+000
   endloop
 endfacet
 facet normal -6.274690e-001  7.786415e-001  0.000000e+000
   outer loop
     vertex -1.309721e+000  1.511499e+000  1.000000e+001
     vertex -1.198555e+000  1.601082e+000  1.000000e+001
     vertex -1.198555e+000  1.601082e+000  0.000000e+000
   endloop
 endfacet
 facet normal -6.274690e-001  7.786415e-001  0.000000e+000
   outer loop
     vertex -1.309721e+000  1.511499e+000  1.000000e+001
     vertex -1.198555e+000  1.601082e+000  0.000000e+000
     vertex -1.309721e+000  1.511499e+000  0.000000e+000
   endloop
 endfacet
 facet normal -6.814179e-001  7.318945e-001  0.000000e+000
   outer loop
     vertex -1.414214e+000  1.414214e+000  1.000000e+001
     vertex -1.309721e+000  1.511499e+000  1.000000e+001
     vertex -1.309721e+000  1.511499e+000  0.000000e+000
   endloop
 endfacet
 facet normal -6.814179e-001  7.318945e-001  0.000000e+000
   outer loop
     vertex -1.414214e+000  1.414214e+000  1.000000e+001
     vertex -1.309721e+000  1.511499e+000  0.000000e+000
     vertex -1.414214e+000  1.414214e+000  0.000000e+000
   endloop
 endfacet
 facet normal -7.318945e-001  6.814179e-001  0.000000e+000
   outer loop
     vertex -1.511499e+000  1.309721e+000  1.000000e+001
     vertex -1.414214e+000  1.414214e+000  1.000000e+001
     vertex -1.414214e+000  1.414214e+000  0.000000e+000
   endloop
 endfacet
 facet normal -7.318945e-001  6.814179e-001  0.000000e+000
   outer loop
     vertex -1.511499e+000  1.309721e+000  1.000000e+001
     vertex -1.414214e+000  1.414214e+000  0.000000e+000
     vertex -1.511499e+000  1.309721e+000  0.000000e+000
   endloop
 endfacet
 facet normal -7.786415e-001  6.274690e-001  0.000000e+000
   outer loop
     vertex -1.601082e+000  1.198555e+000  1.000000e+001
     vertex -1.511499e+000  1.309721e+000  1.000000e+001
     vertex -1.511499e+000  1.309721e+000  0.000000e+000
   endloop
 endfacet
 facet normal -7.786415e-001  6.274690e-001  0.000000e+000
   outer loop
     vertex -1.601082e+000  1.198555e+000  1.000000e+001
     vertex -1.511499e+000  1.309721e+000  0.000000e+000
     vertex -1.601082e+000  1.198555e+000  0.000000e+000
   endloop
 endfacet
 facet normal -8.214208e-001  5.703226e-001  0.000000e+000
   outer loop
     vertex -1.682507e+000  1.081282e+000  1.000000e+001
     vertex -1.601082e+000  1.198555e+000  0.000000e+000
     vertex -1.682507e+000  1.081282e+000  0.000000e+000
   endloop
 endfacet
 facet normal -8.600142e-001  5.102700e-001  0.000000e+000
   outer loop
     vertex -1.682507e+000  1.081282e+000  1.000000e+001
     vertex -1.682507e+000  1.081282e+000  0.000000e+000
     vertex -1.755358e+000  9.584980e-001  0.000000e+000
   endloop
 endfacet
 facet normal -8.214208e-001  5.703226e-001  0.000000e+000
   outer loop
     vertex -1.682507e+000  1.081282e+000  1.000000e+001
     vertex -1.601082e+000  1.198555e+000  1.000000e+001
     vertex -1.601082e+000  1.198555e+000  0.000000e+000
   endloop
 endfacet
 facet normal -8.600142e-001  5.102700e-001  0.000000e+000
   outer loop
     vertex -1.755358e+000  9.584980e-001  1.000000e+001
     vertex -1.682507e+000  1.081282e+000  1.000000e+001
     vertex -1.755358e+000  9.584980e-001  0.000000e+000
   endloop
 endfacet
 facet normal -8.942253e-001  4.476172e-001  0.000000e+000
   outer loop
     vertex -1.819264e+000  8.308300e-001  1.000000e+001
     vertex -1.755358e+000  9.584980e-001  0.000000e+000
     vertex -1.819264e+000  8.308300e-001  0.000000e+000
   endloop
 endfacet
 facet normal -9.238795e-001  3.826834e-001  0.000000e+000
   outer loop
     vertex -1.819264e+000  8.308300e-001  1.000000e+001
     vertex -1.819264e+000  8.308300e-001  0.000000e+000
     vertex -1.873899e+000  6.989284e-001  0.000000e+000
   endloop
 endfacet
 facet normal -8.942253e-001  4.476172e-001  0.000000e+000
   outer loop
     vertex -1.819264e+000  8.308300e-001  1.000000e+001
     vertex -1.755358e+000  9.584980e-001  1.000000e+001
     vertex -1.755358e+000  9.584980e-001  0.000000e+000
   endloop
 endfacet
 facet normal -9.238795e-001  3.826834e-001  0.000000e+000
   outer loop
     vertex -1.873899e+000  6.989284e-001  1.000000e+001
     vertex -1.819264e+000  8.308300e-001  1.000000e+001
     vertex -1.873899e+000  6.989284e-001  0.000000e+000
   endloop
 endfacet
 facet normal -9.488259e-001  3.157996e-001  0.000000e+000
   outer loop
     vertex -1.918986e+000  5.634651e-001  1.000000e+001
     vertex -1.873899e+000  6.989284e-001  0.000000e+000
     vertex -1.918986e+000  5.634651e-001  0.000000e+000
   endloop
 endfacet
 facet normal -9.689373e-001  2.473065e-001  0.000000e+000
   outer loop
     vertex -1.918986e+000  5.634651e-001  1.000000e+001
     vertex -1.918986e+000  5.634651e-001  0.000000e+000
     vertex -1.954294e+000  4.251306e-001  0.000000e+000
   endloop
 endfacet
 facet normal -9.488259e-001  3.157996e-001  0.000000e+000
   outer loop
     vertex -1.918986e+000  5.634651e-001  1.000000e+001
     vertex -1.873899e+000  6.989284e-001  1.000000e+001
     vertex -1.873899e+000  6.989284e-001  0.000000e+000
   endloop
 endfacet
 facet normal -9.689373e-001  2.473065e-001  0.000000e+000
   outer loop
     vertex -1.954294e+000  4.251306e-001  1.000000e+001
     vertex -1.918986e+000  5.634651e-001  1.000000e+001
     vertex -1.954294e+000  4.251306e-001  0.000000e+000
   endloop
 endfacet
 facet normal -9.841112e-001  1.775532e-001  0.000000e+000
   outer loop
     vertex -1.979643e+000  2.846297e-001  1.000000e+001
     vertex -1.954294e+000  4.251306e-001  0.000000e+000
     vertex -1.979643e+000  2.846297e-001  0.000000e+000
   endloop
 endfacet
 facet normal -9.942703e-001  1.068951e-001  0.000000e+000
   outer loop
     vertex -1.979643e+000  2.846297e-001  1.000000e+001
     vertex -1.979643e+000  2.846297e-001  0.000000e+000
     vertex -1.994904e+000  1.426784e-001  0.000000e+000
   endloop
 endfacet
 facet normal -9.841112e-001  1.775532e-001  0.000000e+000
   outer loop
     vertex -1.979643e+000  2.846297e-001  1.000000e+001
     vertex -1.954294e+000  4.251306e-001  1.000000e+001
     vertex -1.954294e+000  4.251306e-001  0.000000e+000
   endloop
 endfacet
 facet normal -9.942703e-001  1.068951e-001  0.000000e+000
   outer loop
     vertex -1.994904e+000  1.426784e-001  1.000000e+001
     vertex -1.979643e+000  2.846297e-001  1.000000e+001
     vertex -1.994904e+000  1.426784e-001  0.000000e+000
   endloop
 endfacet
 facet normal -9.993628e-001  3.569233e-002  0.000000e+000
   outer loop
     vertex -2.000000e+000  2.021286e-015  1.000000e+001
     vertex -1.994904e+000  1.426784e-001  0.000000e+000
     vertex -2.000000e+000  2.021286e-015  0.000000e+000
   endloop
 endfacet
 facet normal -9.993628e-001 -3.569233e-002 -0.000000e+000
   outer loop
     vertex -2.000000e+000  2.021286e-015  1.000000e+001
     vertex -2.000000e+000  2.021286e-015  0.000000e+000
     vertex -1.994904e+000 -1.426784e-001  0.000000e+000
   endloop
 endfacet
 facet normal -9.993628e-001  3.569233e-002  0.000000e+000
   outer loop
     vertex -2.000000e+000  2.021286e-015  1.000000e+001
     vertex -1.994904e+000  1.426784e-001  1.000000e+001
     vertex -1.994904e+000  1.426784e-001  0.000000e+000
   endloop
 endfacet
 facet normal -9.993628e-001 -3.569233e-002  0.000000e+000
   outer loop
     vertex -1.994904e+000 -1.426784e-001  1.000000e+001
     vertex -2.000000e+000  2.021286e-015  1.000000e+001
     vertex -1.994904e+000 -1.426784e-001  0.000000e+000
   endloop
 endfacet
 facet normal -9.942703e-001 -1.068951e-001  0.000000e+000
   outer loop
     vertex -1.979643e+000 -2.846297e-001  1.000000e+001
     vertex -1.994904e+000 -1.426784e-001  0.000000e+000
     vertex -1.979643e+000 -2.846297e-001  0.000000e+000
   endloop
 endfacet
 facet normal -9.841112e-001 -1.775532e-001 -0.000000e+000
   outer loop
     vertex -1.979643e+000 -2.846297e-001  1.000000e+001
     vertex -1.979643e+000 -2.846297e-001  0.000000e+000
     vertex -1.954294e+000 -4.251306e-001  0.000000e+000
   endloop
 endfacet
 facet normal -9.942703e-001 -1.068951e-001 -0.000000e+000
   outer loop
     vertex -1.979643e+000 -2.846297e-001  1.000000e+001
     vertex -1.994904e+000 -1.426784e-001  1.000000e+001
     vertex -1.994904e+000 -1.426784e-001  0.000000e+000
   endloop
 endfacet
 facet normal -9.841112e-001 -1.775532e-001  0.000000e+000
   outer loop
     vertex -1.954294e+000 -4.251306e-001  1.000000e+001
     vertex -1.979643e+000 -2.846297e-001  1.000000e+001
     vertex -1.954294e+000 -4.251306e-001  0.000000e+000
   endloop
 endfacet
 facet normal -9.689373e-001 -2.473065e-001  0.000000e+000
   outer loop
     vertex -1.918986e+000 -5.634651e-001  1.000000e+001
     vertex -1.954294e+000 -4.251306e-001  0.000000e+000
     vertex -1.918986e+000 -5.634651e-001  0.000000e+000
   endloop
 endfacet
 facet normal -9.488259e-001 -3.157996e-001 -0.000000e+000
   outer loop
     vertex -1.918986e+000 -5.634651e-001  1.000000e+001
     vertex -1.918986e+000 -5.634651e-001  0.000000e+000
     vertex -1.873899e+000 -6.989284e-001  0.000000e+000
   endloop
 endfacet
 facet normal -9.689373e-001 -2.473065e-001 -0.000000e+000
   outer loop
     vertex -1.918986e+000 -5.634651e-001  1.000000e+001
     vertex -1.954294e+000 -4.251306e-001  1.000000e+001
     vertex -1.954294e+000 -4.251306e-001  0.000000e+000
   endloop
 endfacet
 facet normal -9.488259e-001 -3.157996e-001  0.000000e+000
   outer loop
     vertex -1.873899e+000 -6.989284e-001  1.000000e+001
     vertex -1.918986e+000 -5.634651e-001  1.000000e+001
     vertex -1.873899e+000 -6.989284e-001  0.000000e+000
   endloop
 endfacet
 facet normal -9.238795e-001 -3.826834e-001  0.000000e+000
   outer loop
     vertex -1.819264e+000 -8.308300e-001  1.000000e+001
     vertex -1.873899e+000 -6.989284e-001  0.000000e+000
     vertex -1.819264e+000 -8.308300e-001  0.000000e+000
   endloop
 endfacet
 facet normal -8.942253e-001 -4.476172e-001 -0.000000e+000
   outer loop
     vertex -1.819264e+000 -8.308300e-001  1.000000e+001
     vertex -1.819264e+000 -8.308300e-001  0.000000e+000
     vertex -1.755358e+000 -9.584980e-001  0.000000e+000
   endloop
 endfacet
 facet normal -9.238795e-001 -3.826834e-001 -0.000000e+000
   outer loop
     vertex -1.819264e+000 -8.308300e-001  1.000000e+001
     vertex -1.873899e+000 -6.989284e-001  1.000000e+001
     vertex -1.873899e+000 -6.989284e-001  0.000000e+000
   endloop
 endfacet
 facet normal -8.942253e-001 -4.476172e-001  0.000000e+000
   outer loop
     vertex -1.755358e+000 -9.584980e-001  1.000000e+001
     vertex -1.819264e+000 -8.308300e-001  1.000000e+001
     vertex -1.755358e+000 -9.584980e-001  0.000000e+000
   endloop
 endfacet
 facet normal -8.600142e-001 -5.102700e-001  0.000000e+000
   outer loop
     vertex -1.682507e+000 -1.081282e+000  1.000000e+001
     vertex -1.755358e+000 -9.584980e-001  0.000000e+000
     vertex -1.682507e+000 -1.081282e+000  0.000000e+000
   endloop
 endfacet
 facet normal -8.214208e-001 -5.703226e-001 -0.000000e+000
   outer loop
     vertex -1.682507e+000 -1.081282e+000  1.000000e+001
     vertex -1.682507e+000 -1.081282e+000  0.000000e+000
     vertex -1.601082e+000 -1.198555e+000  0.000000e+000
   endloop
 endfacet
 facet normal -8.600142e-001 -5.102700e-001 -0.000000e+000
   outer loop
     vertex -1.682507e+000 -1.081282e+000  1.000000e+001
     vertex -1.755358e+000 -9.584980e-001  1.000000e+001
     vertex -1.755358e+000 -9.584980e-001  0.000000e+000
   endloop
 endfacet
 facet normal -8.214208e-001 -5.703226e-001  0.000000e+000
   outer loop
     vertex -1.601082e+000 -1.198555e+000  1.000000e+001
     vertex -1.682507e+000 -1.081282e+000  1.000000e+001
     vertex -1.601082e+000 -1.198555e+000  0.000000e+000
   endloop
 endfacet
 facet normal -7.786415e-001 -6.274690e-001  0.000000e+000
   outer loop
     vertex -1.511499e+000 -1.309721e+000  1.000000e+001
     vertex -1.601082e+000 -1.198555e+000  0.000000e+000
     vertex -1.511499e+000 -1.309721e+000  0.000000e+000
   endloop
 endfacet
 facet normal -7.318945e-001 -6.814179e-001 -0.000000e+000
   outer loop
     vertex -1.511499e+000 -1.309721e+000  1.000000e+001
     vertex -1.511499e+000 -1.309721e+000  0.000000e+000
     vertex -1.414214e+000 -1.414214e+000  0.000000e+000
   endloop
 endfacet
 facet normal -7.786415e-001 -6.274690e-001 -0.000000e+000
   outer loop
     vertex -1.511499e+000 -1.309721e+000  1.000000e+001
     vertex -1.601082e+000 -1.198555e+000  1.000000e+001
     vertex -1.601082e+000 -1.198555e+000  0.000000e+000
   endloop
 endfacet
 facet normal -7.318945e-001 -6.814179e-001  0.000000e+000
   outer loop
     vertex -1.414214e+000 -1.414214e+000  1.000000e+001
     vertex -1.511499e+000 -1.309721e+000  1.000000e+001
     vertex -1.414214e+000 -1.414214e+000  0.000000e+000
   endloop
 endfacet
 facet normal -6.814179e-001 -7.318945e-001 -0.000000e+000
   outer loop
     vertex -1.309721e+000 -1.511499e+000  1.000000e+001
     vertex -1.414214e+000 -1.414214e+000  1.000000e+001
     vertex -1.414214e+000 -1.414214e+000  0.000000e+000
   endloop
 endfacet
 facet normal -6.814179e-001 -7.318945e-001  0.000000e+000
   outer loop
     vertex -1.309721e+000 -1.511499e+000  1.000000e+001
     vertex -1.414214e+000 -1.414214e+000  0.000000e+000
     vertex -1.309721e+000 -1.511499e+000  0.000000e+000
   endloop
 endfacet
 facet normal -6.274690e-001 -7.786415e-001 -0.000000e+000
   outer loop
     vertex -1.198555e+000 -1.601082e+000  1.000000e+001
     vertex -1.309721e+000 -1.511499e+000  1.000000e+001
     vertex -1.309721e+000 -1.511499e+000  0.000000e+000
   endloop
 endfacet
 facet normal -6.274690e-001 -7.786415e-001  0.000000e+000
   outer loop
     vertex -1.198555e+000 -1.601082e+000  1.000000e+001
     vertex -1.309721e+000 -1.511499e+000  0.000000e+000
     vertex -1.198555e+000 -1.601082e+000  0.000000e+000
   endloop
 endfacet
 facet normal -5.703226e-001 -8.214208e-001 -0.000000e+000
   outer loop
     vertex -1.198555e+000 -1.601082e+000  1.000000e+001
     vertex -1.198555e+000 -1.601082e+000  0.000000e+000
     vertex -1.081282e+000 -1.682507e+000  0.000000e+000
   endloop
 endfacet
 facet normal -5.703226e-001 -8.214208e-001  0.000000e+000
   outer loop
     vertex -1.081282e+000 -1.682507e+000  1.000000e+001
     vertex -1.198555e+000 -1.601082e+000  1.000000e+001
     vertex -1.081282e+000 -1.682507e+000  0.000000e+000
   endloop
 endfacet
 facet normal -5.102700e-001 -8.600142e-001 -0.000000e+000
   outer loop
     vertex -1.081282e+000 -1.682507e+000  1.000000e+001
     vertex -1.081282e+000 -1.682507e+000  0.000000e+000
     vertex -9.584980e-001 -1.755358e+000  0.000000e+000
   endloop
 endfacet
 facet normal -5.102700e-001 -8.600142e-001  0.000000e+000
   outer loop
     vertex -9.584980e-001 -1.755358e+000  1.000000e+001
     vertex -1.081282e+000 -1.682507e+000  1.000000e+001
     vertex -9.584980e-001 -1.755358e+000  0.000000e+000
   endloop
 endfacet
 facet normal -4.476172e-001 -8.942253e-001 -0.000000e+000
   outer loop
     vertex -8.308300e-001 -1.819264e+000  1.000000e+001
     vertex -9.584980e-001 -1.755358e+000  1.000000e+001
     vertex -9.584980e-001 -1.755358e+000  0.000000e+000
   endloop
 endfacet
 facet normal -4.476172e-001 -8.942253e-001  0.000000e+000
   outer loop
     vertex -8.308300e-001 -1.819264e+000  1.000000e+001
     vertex -9.584980e-001 -1.755358e+000  0.000000e+000
     vertex -8.308300e-001 -1.819264e+000  0.000000e+000
   endloop
 endfacet
 facet normal -3.826834e-001 -9.238795e-001 -0.000000e+000
   outer loop
     vertex -6.989284e-001 -1.873899e+000  1.000000e+001
     vertex -8.308300e-001 -1.819264e+000  1.000000e+001
     vertex -8.308300e-001 -1.819264e+000  0.000000e+000
   endloop
 endfacet
 facet normal -3.826834e-001 -9.238795e-001  0.000000e+000
   outer loop
     vertex -6.989284e-001 -1.873899e+000  1.000000e+001
     vertex -8.308300e-001 -1.819264e+000  0.000000e+000
     vertex -6.989284e-001 -1.873899e+000  0.000000e+000
   endloop
 endfacet
 facet normal -3.157996e-001 -9.488259e-001 -0.000000e+000
   outer loop
     vertex -6.989284e-001 -1.873899e+000  1.000000e+001
     vertex -6.989284e-001 -1.873899e+000  0.000000e+000
     vertex -5.634651e-001 -1.918986e+000  0.000000e+000
   endloop
 endfacet
 facet normal -3.157996e-001 -9.488259e-001  0.000000e+000
   outer loop
     vertex -5.634651e-001 -1.918986e+000  1.000000e+001
     vertex -6.989284e-001 -1.873899e+000  1.000000e+001
     vertex -5.634651e-001 -1.918986e+000  0.000000e+000
   endloop
 endfacet
 facet normal -2.473065e-001 -9.689373e-001 -0.000000e+000
   outer loop
     vertex -5.634651e-001 -1.918986e+000  1.000000e+001
     vertex -5.634651e-001 -1.918986e+000  0.000000e+000
     vertex -4.251306e-001 -1.954294e+000  0.000000e+000
   endloop
 endfacet
 facet normal -2.473065e-001 -9.689373e-001  0.000000e+000
   outer loop
     vertex -4.251306e-001 -1.954294e+000  1.000000e+001
     vertex -5.634651e-001 -1.918986e+000  1.000000e+001
     vertex -4.251306e-001 -1.954294e+000  0.000000e+000
   endloop
 endfacet
 facet normal -1.775532e-001 -9.841112e-001 -0.000000e+000
   outer loop
     vertex -2.846297e-001 -1.979643e+000  1.000000e+001
     vertex -4.251306e-001 -1.954294e+000  1.000000e+001
     vertex -4.251306e-001 -1.954294e+000  0.000000e+000
   endloop
 endfacet
 facet normal -1.775532e-001 -9.841112e-001  0.000000e+000
   outer loop
     vertex -2.846297e-001 -1.979643e+000  1.000000e+001
     vertex -4.251306e-001 -1.954294e+000  0.000000e+000
     vertex -2.846297e-001 -1.979643e+000  0.000000e+000
   endloop
 endfacet
 facet normal -1.068951e-001 -9.942703e-001 -0.000000e+000
   outer loop
     vertex -1.426784e-001 -1.994904e+000  1.000000e+001
     vertex -2.846297e-001 -1.979643e+000  1.000000e+001
     vertex -2.846297e-001 -1.979643e+000  0.000000e+000
   endloop
 endfacet
 facet normal -1.068951e-001 -9.942703e-001  0.000000e+000
   outer loop
     vertex -1.426784e-001 -1.994904e+000  1.000000e+001
     vertex -2.846297e-001 -1.979643e+000  0.000000e+000
     vertex -1.426784e-001 -1.994904e+000  0.000000e+000
   endloop
 endfacet
 facet normal -3.569233e-002 -9.993628e-001 -0.000000e+000
   outer loop
     vertex -1.426784e-001 -1.994904e+000  1.000000e+001
     vertex -1.426784e-001 -1.994904e+000  0.000000e+000
     vertex -3.920108e-015 -2.000000e+000  0.000000e+000
   endloop
 endfacet
 facet normal -3.569233e-002 -9.993628e-001  0.000000e+000
   outer loop
     vertex -3.920108e-015 -2.000000e+000  1.000000e+001
     vertex -1.426784e-001 -1.994904e+000  1.000000e+001
     vertex -3.920108e-015 -2.000000e+000  0.000000e+000
   endloop
 endfacet
 facet normal  3.569233e-002 -9.993628e-001  0.000000e+000
   outer loop
     vertex -3.920108e-015 -2.000000e+000  1.000000e+001
     vertex -3.920108e-015 -2.000000e+000  0.000000e+000
     vertex  1.426784e-001 -1.994904e+000  0.000000e+000
   endloop
 endfacet
 facet normal  3.569233e-002 -9.993628e-001  0.000000e+000
   outer loop
     vertex  1.426784e-001 -1.994904e+000  1.000000e+001
     vertex -3.920108e-015 -2.000000e+000  1.000000e+001
     vertex  1.426784e-001 -1.994904e+000  0.000000e+000
   endloop
 endfacet
 facet normal  1.068951e-001 -9.942703e-001  0.000000e+000
   outer loop
     vertex  2.846297e-001 -1.979643e+000  1.000000e+001
     vertex  1.426784e-001 -1.994904e+000  1.000000e+001
     vertex  1.426784e-001 -1.994904e+000  0.000000e+000
   endloop
 endfacet
 facet normal  1.068951e-001 -9.942703e-001  0.000000e+000
   outer loop
     vertex  2.846297e-001 -1.979643e+000  1.000000e+001
     vertex  1.426784e-001 -1.994904e+000  0.000000e+000
     vertex  2.846297e-001 -1.979643e+000  0.000000e+000
   endloop
 endfacet
 facet normal  1.775532e-001 -9.841112e-001  0.000000e+000
   outer loop
     vertex  4.251306e-001 -1.954294e+000  1.000000e+001
     vertex  2.846297e-001 -1.979643e+000  1.000000e+001
     vertex  2.846297e-001 -1.979643e+000  0.000000e+000
   endloop
 endfacet
 facet normal  1.775532e-001 -9.841112e-001  0.000000e+000
   outer loop
     vertex  4.251306e-001 -1.954294e+000  1.000000e+001
     vertex  2.846297e-001 -1.979643e+000  0.000000e+000
     vertex  4.251306e-001 -1.954294e+000  0.000000e+000
   endloop
 endfacet
 facet normal  2.473065e-001 -9.689373e-001  0.000000e+000
   outer loop
     vertex  4.251306e-001 -1.954294e+000  1.000000e+001
     vertex  4.251306e-001 -1.954294e+000  0.000000e+000
     vertex  5.634651e-001 -1.918986e+000  0.000000e+000
   endloop
 endfacet
 facet normal  2.473065e-001 -9.689373e-001  0.000000e+000
   outer loop
     vertex  5.634651e-001 -1.918986e+000  1.000000e+001
     vertex  4.251306e-001 -1.954294e+000  1.000000e+001
     vertex  5.634651e-001 -1.918986e+000  0.000000e+000
   endloop
 endfacet
 facet normal  3.157996e-001 -9.488259e-001  0.000000e+000
   outer loop
     vertex  5.634651e-001 -1.918986e+000  1.000000e+001
     vertex  5.634651e-001 -1.918986e+000  0.000000e+000
     vertex  6.989284e-001 -1.873899e+000  0.000000e+000
   endloop
 endfacet
 facet normal  3.157996e-001 -9.488259e-001  0.000000e+000
   outer loop
     vertex  6.989284e-001 -1.873899e+000  1.000000e+001
     vertex  5.634651e-001 -1.918986e+000  1.000000e+001
     vertex  6.989284e-001 -1.873899e+000  0.000000e+000
   endloop
 endfacet
 facet normal  3.826834e-001 -9.238795e-001  0.000000e+000
   outer loop
     vertex  8.308300e-001 -1.819264e+000  1.000000e+001
     vertex  6.989284e-001 -1.873899e+000  0.000000e+000
     vertex  8.308300e-001 -1.819264e+000  0.000000e+000
   endloop
 endfacet
 facet normal  4.476172e-001 -8.942253e-001  0.000000e+000
   outer loop
     vertex  8.308300e-001 -1.819264e+000  1.000000e+001
     vertex  8.308300e-001 -1.819264e+000  0.000000e+000
     vertex  9.584980e-001 -1.755358e+000  0.000000e+000
   endloop
 endfacet
 facet normal  3.826834e-001 -9.238795e-001  0.000000e+000
   outer loop
     vertex  8.308300e-001 -1.819264e+000  1.000000e+001
     vertex  6.989284e-001 -1.873899e+000  1.000000e+001
     vertex  6.989284e-001 -1.873899e+000  0.000000e+000
   endloop
 endfacet
 facet normal  4.476172e-001 -8.942253e-001  0.000000e+000
   outer loop
     vertex  9.584980e-001 -1.755358e+000  1.000000e+001
     vertex  8.308300e-001 -1.819264e+000  1.000000e+001
     vertex  9.584980e-001 -1.755358e+000  0.000000e+000
   endloop
 endfacet
 facet normal  5.102700e-001 -8.600142e-001  0.000000e+000
   outer loop
     vertex  1.081282e+000 -1.682507e+000  1.000000e+001
     vertex  9.584980e-001 -1.755358e+000  0.000000e+000
     vertex  1.081282e+000 -1.682507e+000  0.000000e+000
   endloop
 endfacet
 facet normal  5.703226e-001 -8.214208e-001  0.000000e+000
   outer loop
     vertex  1.081282e+000 -1.682507e+000  1.000000e+001
     vertex  1.081282e+000 -1.682507e+000  0.000000e+000
     vertex  1.198555e+000 -1.601082e+000  0.000000e+000
   endloop
 endfacet
 facet normal  5.102700e-001 -8.600142e-001  0.000000e+000
   outer loop
     vertex  1.081282e+000 -1.682507e+000  1.000000e+001
     vertex  9.584980e-001 -1.755358e+000  1.000000e+001
     vertex  9.584980e-001 -1.755358e+000  0.000000e+000
   endloop
 endfacet
 facet normal  6.274690e-001 -7.786415e-001  0.000000e+000
   outer loop
     vertex  1.198555e+000 -1.601082e+000  1.000000e+001
     vertex  1.198555e+000 -1.601082e+000  0.000000e+000
     vertex  1.309721e+000 -1.511499e+000  0.000000e+000
   endloop
 endfacet
 facet normal  5.703226e-001 -8.214208e-001  0.000000e+000
   outer loop
     vertex  1.198555e+000 -1.601082e+000  1.000000e+001
     vertex  1.081282e+000 -1.682507e+000  1.000000e+001
     vertex  1.198555e+000 -1.601082e+000  0.000000e+000
   endloop
 endfacet
 facet normal  6.814179e-001 -7.318945e-001  0.000000e+000
   outer loop
     vertex  1.309721e+000 -1.511499e+000  1.000000e+001
     vertex  1.309721e+000 -1.511499e+000  0.000000e+000
     vertex  1.414214e+000 -1.414214e+000  0.000000e+000
   endloop
 endfacet
 facet normal  6.274690e-001 -7.786415e-001  0.000000e+000
   outer loop
     vertex  1.309721e+000 -1.511499e+000  1.000000e+001
     vertex  1.198555e+000 -1.601082e+000  1.000000e+001
     vertex  1.309721e+000 -1.511499e+000  0.000000e+000
   endloop
 endfacet
 facet normal  6.814179e-001 -7.318945e-001  0.000000e+000
   outer loop
     vertex  1.414214e+000 -1.414214e+000  1.000000e+001
     vertex  1.309721e+000 -1.511499e+000  1.000000e+001
     vertex  1.414214e+000 -1.414214e+000  0.000000e+000
   endloop
 endfacet
 facet normal  7.318945e-001 -6.814179e-001  0.000000e+000
   outer loop
     vertex  1.511499e+000 -1.309721e+000  1.000000e+001
     vertex  1.414214e+000 -1.414214e+000  0.000000e+000
     vertex  1.511499e+000 -1.309721e+000  0.000000e+000
   endloop
 endfacet
 facet normal  7.786415e-001 -6.274690e-001  0.000000e+000
   outer loop
     vertex  1.511499e+000 -1.309721e+000  1.000000e+001
     vertex  1.511499e+000 -1.309721e+000  0.000000e+000
     vertex  1.601082e+000 -1.198555e+000  0.000000e+000
   endloop
 endfacet
 facet normal  7.318945e-001 -6.814179e-001  0.000000e+000
   outer loop
     vertex  1.511499e+000 -1.309721e+000  1.000000e+001
     vertex  1.414214e+000 -1.414214e+000  1.000000e+001
     vertex  1.414214e+000 -1.414214e+000  0.000000e+000
   endloop
 endfacet
 facet normal  8.214208e-001 -5.703226e-001  0.000000e+000
   outer loop
     vertex  1.601082e+000 -1.198555e+000  1.000000e+001
     vertex  1.601082e+000 -1.198555e+000  0.000000e+000
     vertex  1.682507e+000 -1.081282e+000  0.000000e+000
   endloop
 endfacet
 facet normal  7.786415e-001 -6.274690e-001  0.000000e+000
   outer loop
     vertex  1.601082e+000 -1.198555e+000  1.000000e+001
     vertex  1.511499e+000 -1.309721e+000  1.000000e+001
     vertex  1.601082e+000 -1.198555e+000  0.000000e+000
   endloop
 endfacet
 facet normal  8.214208e-001 -5.703226e-001  0.000000e+000
   outer loop
     vertex  1.682507e+000 -1.081282e+000  1.000000e+001
     vertex  1.601082e+000 -1.198555e+000  1.000000e+001
     vertex  1.682507e+000 -1.081282e+000  0.000000e+000
   endloop
 endfacet
 facet normal  8.600142e-001 -5.102700e-001  0.000000e+000
   outer loop
     vertex  1.755358e+000 -9.584980e-001  1.000000e+001
     vertex  1.682507e+000 -1.081282e+000  1.000000e+001
     vertex  1.682507e+000 -1.081282e+000  0.000000e+000
   endloop
 endfacet
 facet normal  8.600142e-001 -5.102700e-001  0.000000e+000
   outer loop
     vertex  1.755358e+000 -9.584980e-001  1.000000e+001
     vertex  1.682507e+000 -1.081282e+000  0.000000e+000
     vertex  1.755358e+000 -9.584980e-001  0.000000e+000
   endloop
 endfacet
 facet normal  8.942253e-001 -4.476172e-001  0.000000e+000
   outer loop
     vertex  1.755358e+000 -9.584980e-001  1.000000e+001
     vertex  1.755358e+000 -9.584980e-001  0.000000e+000
     vertex  1.819264e+000 -8.308300e-001  0.000000e+000
   endloop
 endfacet
 facet normal  8.942253e-001 -4.476172e-001  0.000000e+000
   outer loop
     vertex  1.819264e+000 -8.308300e-001  1.000000e+001
     vertex  1.755358e+000 -9.584980e-001  1.000000e+001
     vertex  1.819264e+000 -8.308300e-001  0.000000e+000
   endloop
 endfacet
 facet normal  9.238795e-001 -3.826834e-001  0.000000e+000
   outer loop
     vertex  1.819264e+000 -8.308300e-001  1.000000e+001
     vertex  1.819264e+000 -8.308300e-001  0.000000e+000
     vertex  1.873899e+000 -6.989284e-001  0.000000e+000
   endloop
 endfacet
 facet normal  9.238795e-001 -3.826834e-001  0.000000e+000
   outer loop
     vertex  1.873899e+000 -6.989284e-001  1.000000e+001
     vertex  1.819264e+000 -8.308300e-001  1.000000e+001
     vertex  1.873899e+000 -6.989284e-001  0.000000e+000
   endloop
 endfacet
 facet normal  9.488259e-001 -3.157996e-001  0.000000e+000
   outer loop
     vertex  1.873899e+000 -6.989284e-001  1.000000e+001
     vertex  1.873899e+000 -6.989284e-001  0.000000e+000
     vertex  1.918986e+000 -5.634651e-001  0.000000e+000
   endloop
 endfacet
 facet normal  9.488259e-001 -3.157996e-001  0.000000e+000
   outer loop
     vertex  1.918986e+000 -5.634651e-001  1.000000e+001
     vertex  1.873899e+000 -6.989284e-001  1.000000e+001
     vertex  1.918986e+000 -5.634651e-001  0.000000e+000
   endloop
 endfacet
 facet normal  9.689373e-001 -2.473065e-001  0.000000e+000
   outer loop
     vertex  1.954294e+000 -4.251306e-001  1.000000e+001
     vertex  1.918986e+000 -5.634651e-001  1.000000e+001
     vertex  1.918986e+000 -5.634651e-001  0.000000e+000
   endloop
 endfacet
 facet normal  9.689373e-001 -2.473065e-001  0.000000e+000
   outer loop
     vertex  1.954294e+000 -4.251306e-001  1.000000e+001
     vertex  1.918986e+000 -5.634651e-001  0.000000e+000
     vertex  1.954294e+000 -4.251306e-001  0.000000e+000
   endloop
 endfacet
 facet normal  9.841112e-001 -1.775532e-001  0.000000e+000
   outer loop
     vertex  1.954294e+000 -4.251306e-001  1.000000e+001
     vertex  1.954294e+000 -4.251306e-001  0.000000e+000
     vertex  1.979643e+000 -2.846297e-001  0.000000e+000
   endloop
 endfacet
 facet normal  9.841112e-001 -1.775532e-001  0.000000e+000
   outer loop
     vertex  1.979643e+000 -2.846297e-001  1.000000e+001
     vertex  1.954294e+000 -4.251306e-001  1.000000e+001
     vertex  1.979643e+000 -2.846297e-001  0.000000e+000
   endloop
 endfacet
 facet normal  9.942703e-001 -1.068951e-001  0.000000e+000
   outer loop
     vertex  1.994904e+000 -1.426784e-001  1.000000e+001
     vertex  1.979643e+000 -2.846297e-001  1.000000e+001
     vertex  1.979643e+000 -2.846297e-001  0.000000e+000
   endloop
 endfacet
 facet normal  9.942703e-001 -1.068951e-001  0.000000e+000
   outer loop
     vertex  1.994904e+000 -1.426784e-001  1.000000e+001
     vertex  1.979643e+000 -2.846297e-001  0.000000e+000
     vertex  1.994904e+000 -1.426784e-001  0.000000e+000
   endloop
 endfacet
 facet normal  9.993628e-001 -3.569233e-002  0.000000e+000
   outer loop
     vertex  1.994904e+000 -1.426784e-001  1.000000e+001
     vertex  1.994904e+000 -1.426784e-001  0.000000e+000
     vertex  2.000000e+000 -4.898587e-016  0.000000e+000
   endloop
 endfacet
 facet normal  9.993628e-001 -3.569233e-002  0.000000e+000
   outer loop
     vertex  2.000000e+000 -4.898587e-016  1.000000e+001
     vertex  1.994904e+000 -1.426784e-001  1.000000e+001
     vertex  2.000000e+000 -4.898587e-016  0.000000e+000
   endloop
 endfacet
 facet normal -0.000000e+000  0.000000e+000  1.000000e+000
   outer loop
     vertex -1.755358e+000  9.584980e-001  1.000000e+001
     vertex  8.308300e-001 -1.819264e+000  1.000000e+001
     vertex  9.584980e-001 -1.755358e+000  1.000000e+001
   endloop
 endfacet
 facet normal -0.000000e+000 -0.000000e+000  1.000000e+000
   outer loop
     vertex  1.601082e+000  1.198555e+000  1.000000e+001
     vertex  1.755358e+000  9.584980e-001  1.000000e+001
     vertex  1.682507e+000  1.081282e+000  1.000000e+001
   endloop
 endfacet
 facet normal  0.000000e+000  0.000000e+000  1.000000e+000
   outer loop
     vertex  1.198555e+000  1.601082e+000  1.000000e+001
     vertex  1.081282e+000  1.682507e+000  1.000000e+001
     vertex  9.584980e-001  1.755358e+000  1.000000e+001
   endloop
 endfacet
 facet normal  0.000000e+000  0.000000e+000  1.000000e+000
   outer loop
     vertex -1.601082e+000  1.198555e+000  1.000000e+001
     vertex -1.682507e+000  1.081282e+000  1.000000e+001
     vertex -1.755358e+000  9.584980e-001  1.000000e+001
   endloop
 endfacet
 facet normal  0.000000e+000  0.000000e+000  1.000000e+000
   outer loop
     vertex -1.198555e+000 -1.601082e+000  1.000000e+001
     vertex -1.414214e+000 -1.414214e+000  1.000000e+001
     vertex -1.309721e+000 -1.511499e+000  1.000000e+001
   endloop
 endfacet
 facet normal  0.000000e+000  0.000000e+000  1.000000e+000
   outer loop
     vertex -1.601082e+000  1.198555e+000  1.000000e+001
     vertex -1.755358e+000  9.584980e-001  1.000000e+001
     vertex  9.584980e-001 -1.755358e+000  1.000000e+001
   endloop
 endfacet
 facet normal -0.000000e+000  0.000000e+000  1.000000e+000
   outer loop
     vertex -1.601082e+000  1.198555e+000  1.000000e+001
     vertex  9.584980e-001 -1.755358e+000  1.000000e+001
     vertex  1.081282e+000 -1.682507e+000  1.000000e+001
   endloop
 endfacet
 facet normal -0.000000e+000  0.000000e+000  1.000000e+000
   outer loop
     vertex -1.601082e+000  1.198555e+000  1.000000e+001
     vertex  1.081282e+000 -1.682507e+000  1.000000e+001
     vertex  1.198555e+000 -1.601082e+000  1.000000e+001
   endloop
 endfacet
 facet normal  0.000000e+000  0.000000e+000  1.000000e+000
   outer loop
     vertex -1.601082e+000 -1.198555e+000  1.000000e+001
     vertex -1.511499e+000 -1.309721e+000  1.000000e+001
     vertex -1.414214e+000 -1.414214e+000  1.000000e+001
   endloop
 endfacet
 facet normal -0.000000e+000 -0.000000e+000  1.000000e+000
   outer loop
     vertex  1.309721e+000  1.511499e+000  1.000000e+001
     vertex  1.601082e+000  1.198555e+000  1.000000e+001
     vertex  1.511499e+000  1.309721e+000  1.000000e+001
   endloop
 endfacet
 facet normal  0.000000e+000  0.000000e+000  1.000000e+000
   outer loop
     vertex  1.309721e+000  1.511499e+000  1.000000e+001
     vertex  9.584980e-001  1.755358e+000  1.000000e+001
     vertex  1.755358e+000  9.584980e-001  1.000000e+001
   endloop
 endfacet
 facet normal  0.000000e+000  0.000000e+000  1.000000e+000
   outer loop
     vertex  1.309721e+000  1.511499e+000  1.000000e+001
     vertex  1.198555e+000  1.601082e+000  1.000000e+001
     vertex  9.584980e-001  1.755358e+000  1.000000e+001
   endloop
 endfacet
 facet normal -0.000000e+000 -0.000000e+000  1.000000e+000
   outer loop
     vertex  1.309721e+000  1.511499e+000  1.000000e+001
     vertex  1.755358e+000  9.584980e-001  1.000000e+001
     vertex  1.601082e+000  1.198555e+000  1.000000e+001
   endloop
 endfacet
 facet normal  0.000000e+000  0.000000e+000  1.000000e+000
   outer loop
     vertex  1.414214e+000  1.414214e+000  1.000000e+001
     vertex  1.309721e+000  1.511499e+000  1.000000e+001
     vertex  1.511499e+000  1.309721e+000  1.000000e+001
   endloop
 endfacet
 facet normal  0.000000e+000  0.000000e+000  1.000000e+000
   outer loop
     vertex -1.682507e+000 -1.081282e+000  1.000000e+001
     vertex -1.601082e+000 -1.198555e+000  1.000000e+001
     vertex -1.414214e+000 -1.414214e+000  1.000000e+001
   endloop
 endfacet
 facet normal  0.000000e+000  0.000000e+000  1.000000e+000
   outer loop
     vertex -9.584980e-001 -1.755358e+000  1.000000e+001
     vertex -1.198555e+000 -1.601082e+000  1.000000e+001
     vertex -1.081282e+000 -1.682507e+000  1.000000e+001
   endloop
 endfacet
 facet normal -0.000000e+000  0.000000e+000  1.000000e+000
   outer loop
     vertex  1.511499e+000 -1.309721e+000  1.000000e+001
     vertex  1.309721e+000 -1.511499e+000  1.000000e+001
     vertex  1.414214e+000 -1.414214e+000  1.000000e+001
   endloop
 endfacet
 facet normal  0.000000e+000  0.000000e+000  1.000000e+000
   outer loop
     vertex -1.755358e+000 -9.584980e-001  1.000000e+001
     vertex -1.198555e+000 -1.601082e+000  1.000000e+001
     vertex -9.584980e-001 -1.755358e+000  1.000000e+001
   endloop
 endfacet
 facet normal  0.000000e+000  0.000000e+000  1.000000e+000
   outer loop
     vertex -1.309721e+000  1.511499e+000  1.000000e+001
     vertex -1.414214e+000  1.414214e+000  1.000000e+001
     vertex -1.511499e+000  1.309721e+000  1.000000e+001
   endloop
 endfacet
 facet normal  0.000000e+000  0.000000e+000  1.000000e+000
   outer loop
     vertex -1.755358e+000 -9.584980e-001  1.000000e+001
     vertex -1.682507e+000 -1.081282e+000  1.000000e+001
     vertex -1.414214e+000 -1.414214e+000  1.000000e+001
   endloop
 endfacet
 facet normal  0.000000e+000  0.000000e+000  1.000000e+000
   outer loop
     vertex -1.309721e+000  1.511499e+000  1.000000e+001
     vertex -1.511499e+000  1.309721e+000  1.000000e+001
     vertex -1.601082e+000  1.198555e+000  1.000000e+001
   endloop
 endfacet
 facet normal  0.000000e+000  0.000000e+000  1.000000e+000
   outer loop
     vertex -1.309721e+000  1.511499e+000  1.000000e+001
     vertex -1.601082e+000  1.198555e+000  1.000000e+001
     vertex  1.198555e+000 -1.601082e+000  1.000000e+001
   endloop
 endfacet
 facet normal -0.000000e+000  0.000000e+000  1.000000e+000
   outer loop
     vertex -1.309721e+000  1.511499e+000  1.000000e+001
     vertex  1.198555e+000 -1.601082e+000  1.000000e+001
     vertex  1.309721e+000 -1.511499e+000  1.000000e+001
   endloop
 endfacet
 facet normal  0.000000e+000  0.000000e+000  1.000000e+000
   outer loop
     vertex -1.755358e+000 -9.584980e-001  1.000000e+001
     vertex -1.414214e+000 -1.414214e+000  1.000000e+001
     vertex -1.198555e+000 -1.601082e+000  1.000000e+001
   endloop
 endfacet
 facet normal -0.000000e+000  0.000000e+000  1.000000e+000
   outer loop
     vertex -1.309721e+000  1.511499e+000  1.000000e+001
     vertex  1.309721e+000 -1.511499e+000  1.000000e+001
     vertex  1.511499e+000 -1.309721e+000  1.000000e+001
   endloop
 endfacet
 facet normal -0.000000e+000  0.000000e+000  1.000000e+000
   outer loop
     vertex -1.198555e+000  1.601082e+000  1.000000e+001
     vertex  1.511499e+000 -1.309721e+000  1.000000e+001
     vertex  1.601082e+000 -1.198555e+000  1.000000e+001
   endloop
 endfacet
 facet normal  0.000000e+000  0.000000e+000  1.000000e+000
   outer loop
     vertex -1.198555e+000  1.601082e+000  1.000000e+001
     vertex -1.309721e+000  1.511499e+000  1.000000e+001
     vertex  1.511499e+000 -1.309721e+000  1.000000e+001
   endloop
 endfacet
 facet normal  0.000000e+000  0.000000e+000  1.000000e+000
   outer loop
     vertex -6.989284e-001 -1.873899e+000  1.000000e+001
     vertex -1.755358e+000 -9.584980e-001  1.000000e+001
     vertex -9.584980e-001 -1.755358e+000  1.000000e+001
   endloop
 endfacet
 facet normal  0.000000e+000  0.000000e+000  1.000000e+000
   outer loop
     vertex -6.989284e-001 -1.873899e+000  1.000000e+001
     vertex -1.819264e+000 -8.308300e-001  1.000000e+001
     vertex -1.755358e+000 -9.584980e-001  1.000000e+001
   endloop
 endfacet
 facet normal  0.000000e+000  0.000000e+000  1.000000e+000
   outer loop
     vertex -6.989284e-001 -1.873899e+000  1.000000e+001
     vertex -9.584980e-001 -1.755358e+000  1.000000e+001
     vertex -8.308300e-001 -1.819264e+000  1.000000e+001
   endloop
 endfacet
 facet normal  0.000000e+000  0.000000e+000  1.000000e+000
   outer loop
     vertex -9.584980e-001  1.755358e+000  1.000000e+001
     vertex -1.081282e+000  1.682507e+000  1.000000e+001
     vertex -1.198555e+000  1.601082e+000  1.000000e+001
   endloop
 endfacet
 facet normal  0.000000e+000  0.000000e+000  1.000000e+000
   outer loop
     vertex -9.584980e-001  1.755358e+000  1.000000e+001
     vertex -1.198555e+000  1.601082e+000  1.000000e+001
     vertex  1.601082e+000 -1.198555e+000  1.000000e+001
   endloop
 endfacet
 facet normal -0.000000e+000  0.000000e+000  1.000000e+000
   outer loop
     vertex  1.819264e+000 -8.308300e-001  1.000000e+001
     vertex  1.601082e+000 -1.198555e+000  1.000000e+001
     vertex  1.682507e+000 -1.081282e+000  1.000000e+001
   endloop
 endfacet
 facet normal -0.000000e+000  0.000000e+000  1.000000e+000
   outer loop
     vertex  1.819264e+000 -8.308300e-001  1.000000e+001
     vertex  1.682507e+000 -1.081282e+000  1.000000e+001
     vertex  1.755358e+000 -9.584980e-001  1.000000e+001
   endloop
 endfacet
 facet normal  0.000000e+000  0.000000e+000  1.000000e+000
   outer loop
     vertex -4.251306e-001 -1.954294e+000  1.000000e+001
     vertex -1.819264e+000 -8.308300e-001  1.000000e+001
     vertex -6.989284e-001 -1.873899e+000  1.000000e+001
   endloop
 endfacet
 facet normal  0.000000e+000  0.000000e+000  1.000000e+000
   outer loop
     vertex  1.819264e+000 -8.308300e-001  1.000000e+001
     vertex -9.584980e-001  1.755358e+000  1.000000e+001
     vertex  1.601082e+000 -1.198555e+000  1.000000e+001
   endloop
 endfacet
 facet normal  0.000000e+000  0.000000e+000  1.000000e+000
   outer loop
     vertex -4.251306e-001 -1.954294e+000  1.000000e+001
     vertex -6.989284e-001 -1.873899e+000  1.000000e+001
     vertex -5.634651e-001 -1.918986e+000  1.000000e+001
   endloop
 endfacet
 facet normal  0.000000e+000  0.000000e+000  1.000000e+000
   outer loop
     vertex  1.873899e+000 -6.989284e-001  1.000000e+001
     vertex -8.308300e-001  1.819264e+000  1.000000e+001
     vertex -9.584980e-001  1.755358e+000  1.000000e+001
   endloop
 endfacet
 facet normal  0.000000e+000  0.000000e+000  1.000000e+000
   outer loop
     vertex  1.873899e+000 -6.989284e-001  1.000000e+001
     vertex -9.584980e-001  1.755358e+000  1.000000e+001
     vertex  1.819264e+000 -8.308300e-001  1.000000e+001
   endloop
 endfacet
 facet normal  0.000000e+000  0.000000e+000  1.000000e+000
   outer loop
     vertex -1.954294e+000 -4.251306e-001  1.000000e+001
     vertex -1.918986e+000 -5.634651e-001  1.000000e+001
     vertex -1.873899e+000 -6.989284e-001  1.000000e+001
   endloop
 endfacet
 facet normal  0.000000e+000  0.000000e+000  1.000000e+000
   outer loop
     vertex -1.954294e+000 -4.251306e-001  1.000000e+001
     vertex -1.873899e+000 -6.989284e-001  1.000000e+001
     vertex -1.819264e+000 -8.308300e-001  1.000000e+001
   endloop
 endfacet
 facet normal  0.000000e+000  0.000000e+000  1.000000e+000
   outer loop
     vertex  1.918986e+000 -5.634651e-001  1.000000e+001
     vertex -6.989284e-001  1.873899e+000  1.000000e+001
     vertex -8.308300e-001  1.819264e+000  1.000000e+001
   endloop
 endfacet
 facet normal  0.000000e+000  0.000000e+000  1.000000e+000
   outer loop
     vertex  1.918986e+000 -5.634651e-001  1.000000e+001
     vertex -8.308300e-001  1.819264e+000  1.000000e+001
     vertex  1.873899e+000 -6.989284e-001  1.000000e+001
   endloop
 endfacet
 facet normal  0.000000e+000  0.000000e+000  1.000000e+000
   outer loop
     vertex  1.954294e+000 -4.251306e-001  1.000000e+001
     vertex -6.989284e-001  1.873899e+000  1.000000e+001
     vertex  1.918986e+000 -5.634651e-001  1.000000e+001
   endloop
 endfacet
 facet normal  0.000000e+000  0.000000e+000  1.000000e+000
   outer loop
     vertex  1.954294e+000 -4.251306e-001  1.000000e+001
     vertex -5.634651e-001  1.918986e+000  1.000000e+001
     vertex -6.989284e-001  1.873899e+000  1.000000e+001
   endloop
 endfacet
 facet normal  0.000000e+000  0.000000e+000  1.000000e+000
   outer loop
     vertex -1.994904e+000 -1.426784e-001  1.000000e+001
     vertex -1.819264e+000 -8.308300e-001  1.000000e+001
     vertex -4.251306e-001 -1.954294e+000  1.000000e+001
   endloop
 endfacet
 facet normal  0.000000e+000  0.000000e+000  1.000000e+000
   outer loop
     vertex -4.251306e-001  1.954294e+000  1.000000e+001
     vertex -5.634651e-001  1.918986e+000  1.000000e+001
     vertex  1.954294e+000 -4.251306e-001  1.000000e+001
   endloop
 endfacet
 facet normal  0.000000e+000  0.000000e+000  1.000000e+000
   outer loop
     vertex -1.994904e+000 -1.426784e-001  1.000000e+001
     vertex -1.954294e+000 -4.251306e-001  1.000000e+001
     vertex -1.819264e+000 -8.308300e-001  1.000000e+001
   endloop
 endfacet
 facet normal  0.000000e+000  0.000000e+000  1.000000e+000
   outer loop
     vertex -1.994904e+000 -1.426784e-001  1.000000e+001
     vertex -1.979643e+000 -2.846297e-001  1.000000e+001
     vertex -1.954294e+000 -4.251306e-001  1.000000e+001
   endloop
 endfacet
 facet normal  0.000000e+000  0.000000e+000  1.000000e+000
   outer loop
     vertex -1.994904e+000 -1.426784e-001  1.000000e+001
     vertex -4.251306e-001 -1.954294e+000  1.000000e+001
     vertex -2.846297e-001 -1.979643e+000  1.000000e+001
   endloop
 endfacet
 facet normal  0.000000e+000  0.000000e+000  1.000000e+000
   outer loop
     vertex  1.994904e+000 -1.426784e-001  1.000000e+001
     vertex -4.251306e-001  1.954294e+000  1.000000e+001
     vertex  1.954294e+000 -4.251306e-001  1.000000e+001
   endloop
 endfacet
 facet normal  0.000000e+000  0.000000e+000  1.000000e+000
   outer loop
     vertex -3.920108e-015 -2.000000e+000  1.000000e+001
     vertex -2.846297e-001 -1.979643e+000  1.000000e+001
     vertex -1.426784e-001 -1.994904e+000  1.000000e+001
   endloop
 endfacet
 facet normal -0.000000e+000  0.000000e+000  1.000000e+000
   outer loop
     vertex  1.994904e+000 -1.426784e-001  1.000000e+001
     vertex  1.954294e+000 -4.251306e-001  1.000000e+001
     vertex  1.979643e+000 -2.846297e-001  1.000000e+001
   endloop
 endfacet
 facet normal  0.000000e+000  0.000000e+000  1.000000e+000
   outer loop
     vertex -2.000000e+000  2.021286e-015  1.000000e+001
     vertex -1.994904e+000 -1.426784e-001  1.000000e+001
     vertex -2.846297e-001 -1.979643e+000  1.000000e+001
   endloop
 endfacet
 facet normal  0.000000e+000  0.000000e+000  1.000000e+000
   outer loop
     vertex -2.000000e+000  2.021286e-015  1.000000e+001
     vertex -2.846297e-001 -1.979643e+000  1.000000e+001
     vertex -3.920108e-015 -2.000000e+000  1.000000e+001
   endloop
 endfacet
 facet normal  0.000000e+000  0.000000e+000  1.000000e+000
   outer loop
     vertex -1.426784e-001  1.994904e+000  1.000000e+001
     vertex -2.846297e-001  1.979643e+000  1.000000e+001
     vertex -4.251306e-001  1.954294e+000  1.000000e+001
   endloop
 endfacet
 facet normal  0.000000e+000  0.000000e+000  1.000000e+000
   outer loop
     vertex  2.000000e+000 -4.898587e-016  1.000000e+001
     vertex -4.251306e-001  1.954294e+000  1.000000e+001
     vertex  1.994904e+000 -1.426784e-001  1.000000e+001
   endloop
 endfacet
 facet normal  0.000000e+000  0.000000e+000  1.000000e+000
   outer loop
     vertex  2.000000e+000 -4.898587e-016  1.000000e+001
     vertex -1.426784e-001  1.994904e+000  1.000000e+001
     vertex -4.251306e-001  1.954294e+000  1.000000e+001
   endloop
 endfacet
 facet normal  0.000000e+000  0.000000e+000  1.000000e+000
   outer loop
     vertex  1.994904e+000  1.426784e-001  1.000000e+001
     vertex -1.426784e-001  1.994904e+000  1.000000e+001
     vertex  2.000000e+000 -4.898587e-016  1.000000e+001
   endloop
 endfacet
 facet normal  0.000000e+000  0.000000e+000  1.000000e+000
   outer loop
     vertex  1.426784e-001  1.994904e+000  1.000000e+001
     vertex  5.665539e-016  2.000000e+000  1.000000e+001
     vertex -1.426784e-001  1.994904e+000  1.000000e+001
   endloop
 endfacet
 facet normal  0.000000e+000  0.000000e+000  1.000000e+000
   outer loop
     vertex  1.426784e-001  1.994904e+000  1.000000e+001
     vertex -1.426784e-001  1.994904e+000  1.000000e+001
     vertex  1.994904e+000  1.426784e-001  1.000000e+001
   endloop
 endfacet
 facet normal  0.000000e+000  0.000000e+000  1.000000e+000
   outer loop
     vertex -1.979643e+000  2.846297e-001  1.000000e+001
     vertex -2.000000e+000  2.021286e-015  1.000000e+001
     vertex -3.920108e-015 -2.000000e+000  1.000000e+001
   endloop
 endfacet
 facet normal  0.000000e+000  0.000000e+000  1.000000e+000
   outer loop
     vertex -1.979643e+000  2.846297e-001  1.000000e+001
     vertex -1.994904e+000  1.426784e-001  1.000000e+001
     vertex -2.000000e+000  2.021286e-015  1.000000e+001
   endloop
 endfacet
 facet normal  0.000000e+000  0.000000e+000  1.000000e+000
   outer loop
     vertex  1.979643e+000  2.846297e-001  1.000000e+001
     vertex  1.426784e-001  1.994904e+000  1.000000e+001
     vertex  1.994904e+000  1.426784e-001  1.000000e+001
   endloop
 endfacet
 facet normal -0.000000e+000  0.000000e+000  1.000000e+000
   outer loop
     vertex -1.979643e+000  2.846297e-001  1.000000e+001
     vertex -3.920108e-015 -2.000000e+000  1.000000e+001
     vertex  1.426784e-001 -1.994904e+000  1.000000e+001
   endloop
 endfacet
 facet normal -0.000000e+000  0.000000e+000  1.000000e+000
   outer loop
     vertex -1.979643e+000  2.846297e-001  1.000000e+001
     vertex  1.426784e-001 -1.994904e+000  1.000000e+001
     vertex  2.846297e-001 -1.979643e+000  1.000000e+001
   endloop
 endfacet
 facet normal  0.000000e+000  0.000000e+000  1.000000e+000
   outer loop
     vertex  1.954294e+000  4.251306e-001  1.000000e+001
     vertex  1.426784e-001  1.994904e+000  1.000000e+001
     vertex  1.979643e+000  2.846297e-001  1.000000e+001
   endloop
 endfacet
 facet normal  0.000000e+000  0.000000e+000  1.000000e+000
   outer loop
     vertex -1.954294e+000  4.251306e-001  1.000000e+001
     vertex -1.979643e+000  2.846297e-001  1.000000e+001
     vertex  2.846297e-001 -1.979643e+000  1.000000e+001
   endloop
 endfacet
 facet normal  0.000000e+000  0.000000e+000  1.000000e+000
   outer loop
     vertex  4.251306e-001  1.954294e+000  1.000000e+001
     vertex  2.846297e-001  1.979643e+000  1.000000e+001
     vertex  1.426784e-001  1.994904e+000  1.000000e+001
   endloop
 endfacet
 facet normal  0.000000e+000  0.000000e+000  1.000000e+000
   outer loop
     vertex  1.918986e+000  5.634651e-001  1.000000e+001
     vertex  5.634651e-001  1.918986e+000  1.000000e+001
     vertex  4.251306e-001  1.954294e+000  1.000000e+001
   endloop
 endfacet
 facet normal  0.000000e+000  0.000000e+000  1.000000e+000
   outer loop
     vertex  1.918986e+000  5.634651e-001  1.000000e+001
     vertex  4.251306e-001  1.954294e+000  1.000000e+001
     vertex  1.426784e-001  1.994904e+000  1.000000e+001
   endloop
 endfacet
 facet normal  0.000000e+000  0.000000e+000  1.000000e+000
   outer loop
     vertex  1.918986e+000  5.634651e-001  1.000000e+001
     vertex  1.426784e-001  1.994904e+000  1.000000e+001
     vertex  1.954294e+000  4.251306e-001  1.000000e+001
   endloop
 endfacet
 facet normal -0.000000e+000  0.000000e+000  1.000000e+000
   outer loop
     vertex  6.989284e-001 -1.873899e+000  1.000000e+001
     vertex  4.251306e-001 -1.954294e+000  1.000000e+001
     vertex  5.634651e-001 -1.918986e+000  1.000000e+001
   endloop
 endfacet
 facet normal  0.000000e+000  0.000000e+000  1.000000e+000
   outer loop
     vertex  8.308300e-001 -1.819264e+000  1.000000e+001
     vertex -1.954294e+000  4.251306e-001  1.000000e+001
     vertex  2.846297e-001 -1.979643e+000  1.000000e+001
   endloop
 endfacet
 facet normal -0.000000e+000 -0.000000e+000  1.000000e+000
   outer loop
     vertex  1.819264e+000  8.308300e-001  1.000000e+001
     vertex  1.918986e+000  5.634651e-001  1.000000e+001
     vertex  1.873899e+000  6.989284e-001  1.000000e+001
   endloop
 endfacet
 facet normal -0.000000e+000  0.000000e+000  1.000000e+000
   outer loop
     vertex  8.308300e-001 -1.819264e+000  1.000000e+001
     vertex  4.251306e-001 -1.954294e+000  1.000000e+001
     vertex  6.989284e-001 -1.873899e+000  1.000000e+001
   endloop
 endfacet
 facet normal  0.000000e+000  0.000000e+000  1.000000e+000
   outer loop
     vertex  1.819264e+000  8.308300e-001  1.000000e+001
     vertex  5.634651e-001  1.918986e+000  1.000000e+001
     vertex  1.918986e+000  5.634651e-001  1.000000e+001
   endloop
 endfacet
 facet normal -0.000000e+000  0.000000e+000  1.000000e+000
   outer loop
     vertex  8.308300e-001 -1.819264e+000  1.000000e+001
     vertex  2.846297e-001 -1.979643e+000  1.000000e+001
     vertex  4.251306e-001 -1.954294e+000  1.000000e+001
   endloop
 endfacet
 facet normal  0.000000e+000  0.000000e+000  1.000000e+000
   outer loop
     vertex -1.819264e+000  8.308300e-001  1.000000e+001
     vertex -1.873899e+000  6.989284e-001  1.000000e+001
     vertex -1.918986e+000  5.634651e-001  1.000000e+001
   endloop
 endfacet
 facet normal  0.000000e+000  0.000000e+000  1.000000e+000
   outer loop
     vertex -1.819264e+000  8.308300e-001  1.000000e+001
     vertex -1.918986e+000  5.634651e-001  1.000000e+001
     vertex -1.954294e+000  4.251306e-001  1.000000e+001
   endloop
 endfacet
 facet normal -0.000000e+000 -0.000000e+000  1.000000e+000
   outer loop
     vertex  9.584980e-001  1.755358e+000  1.000000e+001
     vertex  1.819264e+000  8.308300e-001  1.000000e+001
     vertex  1.755358e+000  9.584980e-001  1.000000e+001
   endloop
 endfacet
 facet normal  0.000000e+000  0.000000e+000  1.000000e+000
   outer loop
     vertex  9.584980e-001  1.755358e+000  1.000000e+001
     vertex  8.308300e-001  1.819264e+000  1.000000e+001
     vertex  6.989284e-001  1.873899e+000  1.000000e+001
   endloop
 endfacet
 facet normal  0.000000e+000  0.000000e+000  1.000000e+000
   outer loop
     vertex  9.584980e-001  1.755358e+000  1.000000e+001
     vertex  6.989284e-001  1.873899e+000  1.000000e+001
     vertex  5.634651e-001  1.918986e+000  1.000000e+001
   endloop
 endfacet
 facet normal  0.000000e+000  0.000000e+000  1.000000e+000
   outer loop
     vertex  9.584980e-001  1.755358e+000  1.000000e+001
     vertex  5.634651e-001  1.918986e+000  1.000000e+001
     vertex  1.819264e+000  8.308300e-001  1.000000e+001
   endloop
 endfacet
 facet normal  0.000000e+000  0.000000e+000  1.000000e+000
   outer loop
     vertex -1.755358e+000  9.584980e-001  1.000000e+001
     vertex -1.819264e+000  8.308300e-001  1.000000e+001
     vertex -1.954294e+000  4.251306e-001  1.000000e+001
   endloop
 endfacet
 facet normal  0.000000e+000  0.000000e+000  1.000000e+000
   outer loop
     vertex -1.755358e+000  9.584980e-001  1.000000e+001
     vertex -1.954294e+000  4.251306e-001  1.000000e+001
     vertex  8.308300e-001 -1.819264e+000  1.000000e+001
   endloop
 endfacet
 facet normal -0.000000e+000  0.000000e+000 -1.000000e+000
   outer loop
     vertex  9.584980e-001 -1.755358e+000  0.000000e+000
     vertex  8.308300e-001 -1.819264e+000  0.000000e+000
     vertex -1.755358e+000  9.584980e-001  0.000000e+000
   endloop
 endfacet
 facet normal -0.000000e+000 -0.000000e+000 -1.000000e+000
   outer loop
     vertex  1.682507e+000  1.081282e+000  0.000000e+000
     vertex  1.755358e+000  9.584980e-001  0.000000e+000
     vertex  1.601082e+000  1.198555e+000  0.000000e+000
   endloop
 endfacet
 facet normal  0.000000e+000  0.000000e+000 -1.000000e+000
   outer loop
     vertex  9.584980e-001  1.755358e+000  0.000000e+000
     vertex  1.081282e+000  1.682507e+000  0.000000e+000
     vertex  1.198555e+000  1.601082e+000  0.000000e+000
   endloop
 endfacet
 facet normal  0.000000e+000  0.000000e+000 -1.000000e+000
   outer loop
     vertex -1.755358e+000  9.584980e-001  0.000000e+000
     vertex -1.682507e+000  1.081282e+000  0.000000e+000
     vertex -1.601082e+000  1.198555e+000  0.000000e+000
   endloop
 endfacet
 facet normal  0.000000e+000  0.000000e+000 -1.000000e+000
   outer loop
     vertex -1.309721e+000 -1.511499e+000  0.000000e+000
     vertex -1.414214e+000 -1.414214e+000  0.000000e+000
     vertex -1.198555e+000 -1.601082e+000  0.000000e+000
   endloop
 endfacet
 facet normal  0.000000e+000  0.000000e+000 -1.000000e+000
   outer loop
     vertex  9.584980e-001 -1.755358e+000  0.000000e+000
     vertex -1.755358e+000  9.584980e-001  0.000000e+000
     vertex -1.601082e+000  1.198555e+000  0.000000e+000
   endloop
 endfacet
 facet normal -0.000000e+000  0.000000e+000 -1.000000e+000
   outer loop
     vertex  1.081282e+000 -1.682507e+000  0.000000e+000
     vertex  9.584980e-001 -1.755358e+000  0.000000e+000
     vertex -1.601082e+000  1.198555e+000  0.000000e+000
   endloop
 endfacet
 facet normal -0.000000e+000  0.000000e+000 -1.000000e+000
   outer loop
     vertex  1.198555e+000 -1.601082e+000  0.000000e+000
     vertex  1.081282e+000 -1.682507e+000  0.000000e+000
     vertex -1.601082e+000  1.198555e+000  0.000000e+000
   endloop
 endfacet
 facet normal  0.000000e+000  0.000000e+000 -1.000000e+000
   outer loop
     vertex -1.414214e+000 -1.414214e+000  0.000000e+000
     vertex -1.511499e+000 -1.309721e+000  0.000000e+000
     vertex -1.601082e+000 -1.198555e+000  0.000000e+000
   endloop
 endfacet
 facet normal -0.000000e+000 -0.000000e+000 -1.000000e+000
   outer loop
     vertex  1.511499e+000  1.309721e+000  0.000000e+000
     vertex  1.601082e+000  1.198555e+000  0.000000e+000
     vertex  1.309721e+000  1.511499e+000  0.000000e+000
   endloop
 endfacet
 facet normal  0.000000e+000  0.000000e+000 -1.000000e+000
   outer loop
     vertex  1.755358e+000  9.584980e-001  0.000000e+000
     vertex  9.584980e-001  1.755358e+000  0.000000e+000
     vertex  1.309721e+000  1.511499e+000  0.000000e+000
   endloop
 endfacet
 facet normal  0.000000e+000  0.000000e+000 -1.000000e+000
   outer loop
     vertex  9.584980e-001  1.755358e+000  0.000000e+000
     vertex  1.198555e+000  1.601082e+000  0.000000e+000
     vertex  1.309721e+000  1.511499e+000  0.000000e+000
   endloop
 endfacet
 facet normal -0.000000e+000 -0.000000e+000 -1.000000e+000
   outer loop
     vertex  1.601082e+000  1.198555e+000  0.000000e+000
     vertex  1.755358e+000  9.584980e-001  0.000000e+000
     vertex  1.309721e+000  1.511499e+000  0.000000e+000
   endloop
 endfacet
 facet normal  0.000000e+000  0.000000e+000 -1.000000e+000
   outer loop
     vertex  1.511499e+000  1.309721e+000  0.000000e+000
     vertex  1.309721e+000  1.511499e+000  0.000000e+000
     vertex  1.414214e+000  1.414214e+000  0.000000e+000
   endloop
 endfacet
 facet normal  0.000000e+000  0.000000e+000 -1.000000e+000
   outer loop
     vertex -1.414214e+000 -1.414214e+000  0.000000e+000
     vertex -1.601082e+000 -1.198555e+000  0.000000e+000
     vertex -1.682507e+000 -1.081282e+000  0.000000e+000
   endloop
 endfacet
 facet normal  0.000000e+000  0.000000e+000 -1.000000e+000
   outer loop
     vertex -1.081282e+000 -1.682507e+000  0.000000e+000
     vertex -1.198555e+000 -1.601082e+000  0.000000e+000
     vertex -9.584980e-001 -1.755358e+000  0.000000e+000
   endloop
 endfacet
 facet normal -0.000000e+000  0.000000e+000 -1.000000e+000
   outer loop
     vertex  1.414214e+000 -1.414214e+000  0.000000e+000
     vertex  1.309721e+000 -1.511499e+000  0.000000e+000
     vertex  1.511499e+000 -1.309721e+000  0.000000e+000
   endloop
 endfacet
 facet normal  0.000000e+000  0.000000e+000 -1.000000e+000
   outer loop
     vertex -9.584980e-001 -1.755358e+000  0.000000e+000
     vertex -1.198555e+000 -1.601082e+000  0.000000e+000
     vertex -1.755358e+000 -9.584980e-001  0.000000e+000
   endloop
 endfacet
 facet normal  0.000000e+000  0.000000e+000 -1.000000e+000
   outer loop
     vertex -1.511499e+000  1.309721e+000  0.000000e+000
     vertex -1.414214e+000  1.414214e+000  0.000000e+000
     vertex -1.309721e+000  1.511499e+000  0.000000e+000
   endloop
 endfacet
 facet normal  0.000000e+000  0.000000e+000 -1.000000e+000
   outer loop
     vertex -1.414214e+000 -1.414214e+000  0.000000e+000
     vertex -1.682507e+000 -1.081282e+000  0.000000e+000
     vertex -1.755358e+000 -9.584980e-001  0.000000e+000
   endloop
 endfacet
 facet normal  0.000000e+000  0.000000e+000 -1.000000e+000
   outer loop
     vertex -1.601082e+000  1.198555e+000  0.000000e+000
     vertex -1.511499e+000  1.309721e+000  0.000000e+000
     vertex -1.309721e+000  1.511499e+000  0.000000e+000
   endloop
 endfacet
 facet normal  0.000000e+000  0.000000e+000 -1.000000e+000
   outer loop
     vertex  1.198555e+000 -1.601082e+000  0.000000e+000
     vertex -1.601082e+000  1.198555e+000  0.000000e+000
     vertex -1.309721e+000  1.511499e+000  0.000000e+000
   endloop
 endfacet
 facet normal -0.000000e+000  0.000000e+000 -1.000000e+000
   outer loop
     vertex  1.309721e+000 -1.511499e+000  0.000000e+000
     vertex  1.198555e+000 -1.601082e+000  0.000000e+000
     vertex -1.309721e+000  1.511499e+000  0.000000e+000
   endloop
 endfacet
 facet normal  0.000000e+000  0.000000e+000 -1.000000e+000
   outer loop
     vertex -1.198555e+000 -1.601082e+000  0.000000e+000
     vertex -1.414214e+000 -1.414214e+000  0.000000e+000
     vertex -1.755358e+000 -9.584980e-001  0.000000e+000
   endloop
 endfacet
 facet normal -0.000000e+000  0.000000e+000 -1.000000e+000
   outer loop
     vertex  1.511499e+000 -1.309721e+000  0.000000e+000
     vertex  1.309721e+000 -1.511499e+000  0.000000e+000
     vertex -1.309721e+000  1.511499e+000  0.000000e+000
   endloop
 endfacet
 facet normal -0.000000e+000  0.000000e+000 -1.000000e+000
   outer loop
     vertex  1.601082e+000 -1.198555e+000  0.000000e+000
     vertex  1.511499e+000 -1.309721e+000  0.000000e+000
     vertex -1.198555e+000  1.601082e+000  0.000000e+000
   endloop
 endfacet
 facet normal  0.000000e+000  0.000000e+000 -1.000000e+000
   outer loop
     vertex  1.511499e+000 -1.309721e+000  0.000000e+000
     vertex -1.309721e+000  1.511499e+000  0.000000e+000
     vertex -1.198555e+000  1.601082e+000  0.000000e+000
   endloop
 endfacet
 facet normal  0.000000e+000  0.000000e+000 -1.000000e+000
   outer loop
     vertex -9.584980e-001 -1.755358e+000  0.000000e+000
     vertex -1.755358e+000 -9.584980e-001  0.000000e+000
     vertex -6.989284e-001 -1.873899e+000  0.000000e+000
   endloop
 endfacet
 facet normal  0.000000e+000  0.000000e+000 -1.000000e+000
   outer loop
     vertex -1.755358e+000 -9.584980e-001  0.000000e+000
     vertex -1.819264e+000 -8.308300e-001  0.000000e+000
     vertex -6.989284e-001 -1.873899e+000  0.000000e+000
   endloop
 endfacet
 facet normal  0.000000e+000  0.000000e+000 -1.000000e+000
   outer loop
     vertex -8.308300e-001 -1.819264e+000  0.000000e+000
     vertex -9.584980e-001 -1.755358e+000  0.000000e+000
     vertex -6.989284e-001 -1.873899e+000  0.000000e+000
   endloop
 endfacet
 facet normal  0.000000e+000  0.000000e+000 -1.000000e+000
   outer loop
     vertex -1.198555e+000  1.601082e+000  0.000000e+000
     vertex -1.081282e+000  1.682507e+000  0.000000e+000
     vertex -9.584980e-001  1.755358e+000  0.000000e+000
   endloop
 endfacet
 facet normal  0.000000e+000  0.000000e+000 -1.000000e+000
   outer loop
     vertex  1.601082e+000 -1.198555e+000  0.000000e+000
     vertex -1.198555e+000  1.601082e+000  0.000000e+000
     vertex -9.584980e-001  1.755358e+000  0.000000e+000
   endloop
 endfacet
 facet normal -0.000000e+000  0.000000e+000 -1.000000e+000
   outer loop
     vertex  1.682507e+000 -1.081282e+000  0.000000e+000
     vertex  1.601082e+000 -1.198555e+000  0.000000e+000
     vertex  1.819264e+000 -8.308300e-001  0.000000e+000
   endloop
 endfacet
 facet normal -0.000000e+000  0.000000e+000 -1.000000e+000
   outer loop
     vertex  1.755358e+000 -9.584980e-001  0.000000e+000
     vertex  1.682507e+000 -1.081282e+000  0.000000e+000
     vertex  1.819264e+000 -8.308300e-001  0.000000e+000
   endloop
 endfacet
 facet normal  0.000000e+000  0.000000e+000 -1.000000e+000
   outer loop
     vertex -6.989284e-001 -1.873899e+000  0.000000e+000
     vertex -1.819264e+000 -8.308300e-001  0.000000e+000
     vertex -4.251306e-001 -1.954294e+000  0.000000e+000
   endloop
 endfacet
 facet normal  0.000000e+000  0.000000e+000 -1.000000e+000
   outer loop
     vertex  1.601082e+000 -1.198555e+000  0.000000e+000
     vertex -9.584980e-001  1.755358e+000  0.000000e+000
     vertex  1.819264e+000 -8.308300e-001  0.000000e+000
   endloop
 endfacet
 facet normal  0.000000e+000  0.000000e+000 -1.000000e+000
   outer loop
     vertex -5.634651e-001 -1.918986e+000  0.000000e+000
     vertex -6.989284e-001 -1.873899e+000  0.000000e+000
     vertex -4.251306e-001 -1.954294e+000  0.000000e+000
   endloop
 endfacet
 facet normal  0.000000e+000  0.000000e+000 -1.000000e+000
   outer loop
     vertex -9.584980e-001  1.755358e+000  0.000000e+000
     vertex -8.308300e-001  1.819264e+000  0.000000e+000
     vertex  1.873899e+000 -6.989284e-001  0.000000e+000
   endloop
 endfacet
 facet normal  0.000000e+000  0.000000e+000 -1.000000e+000
   outer loop
     vertex  1.819264e+000 -8.308300e-001  0.000000e+000
     vertex -9.584980e-001  1.755358e+000  0.000000e+000
     vertex  1.873899e+000 -6.989284e-001  0.000000e+000
   endloop
 endfacet
 facet normal  0.000000e+000  0.000000e+000 -1.000000e+000
   outer loop
     vertex -1.873899e+000 -6.989284e-001  0.000000e+000
     vertex -1.918986e+000 -5.634651e-001  0.000000e+000
     vertex -1.954294e+000 -4.251306e-001  0.000000e+000
   endloop
 endfacet
 facet normal  0.000000e+000  0.000000e+000 -1.000000e+000
   outer loop
     vertex -1.819264e+000 -8.308300e-001  0.000000e+000
     vertex -1.873899e+000 -6.989284e-001  0.000000e+000
     vertex -1.954294e+000 -4.251306e-001  0.000000e+000
   endloop
 endfacet
 facet normal  0.000000e+000  0.000000e+000 -1.000000e+000
   outer loop
     vertex -8.308300e-001  1.819264e+000  0.000000e+000
     vertex -6.989284e-001  1.873899e+000  0.000000e+000
     vertex  1.918986e+000 -5.634651e-001  0.000000e+000
   endloop
 endfacet
 facet normal  0.000000e+000  0.000000e+000 -1.000000e+000
   outer loop
     vertex  1.873899e+000 -6.989284e-001  0.000000e+000
     vertex -8.308300e-001  1.819264e+000  0.000000e+000
     vertex  1.918986e+000 -5.634651e-001  0.000000e+000
   endloop
 endfacet
 facet normal  0.000000e+000  0.000000e+000 -1.000000e+000
   outer loop
     vertex  1.918986e+000 -5.634651e-001  0.000000e+000
     vertex -6.989284e-001  1.873899e+000  0.000000e+000
     vertex  1.954294e+000 -4.251306e-001  0.000000e+000
   endloop
 endfacet
 facet normal  0.000000e+000  0.000000e+000 -1.000000e+000
   outer loop
     vertex -6.989284e-001  1.873899e+000  0.000000e+000
     vertex -5.634651e-001  1.918986e+000  0.000000e+000
     vertex  1.954294e+000 -4.251306e-001  0.000000e+000
   endloop
 endfacet
 facet normal  0.000000e+000  0.000000e+000 -1.000000e+000
   outer loop
     vertex -4.251306e-001 -1.954294e+000  0.000000e+000
     vertex -1.819264e+000 -8.308300e-001  0.000000e+000
     vertex -1.994904e+000 -1.426784e-001  0.000000e+000
   endloop
 endfacet
 facet normal  0.000000e+000  0.000000e+000 -1.000000e+000
   outer loop
     vertex  1.954294e+000 -4.251306e-001  0.000000e+000
     vertex -5.634651e-001  1.918986e+000  0.000000e+000
     vertex -4.251306e-001  1.954294e+000  0.000000e+000
   endloop
 endfacet
 facet normal  0.000000e+000  0.000000e+000 -1.000000e+000
   outer loop
     vertex -1.819264e+000 -8.308300e-001  0.000000e+000
     vertex -1.954294e+000 -4.251306e-001  0.000000e+000
     vertex -1.994904e+000 -1.426784e-001  0.000000e+000
   endloop
 endfacet
 facet normal  0.000000e+000  0.000000e+000 -1.000000e+000
   outer loop
     vertex -1.954294e+000 -4.251306e-001  0.000000e+000
     vertex -1.979643e+000 -2.846297e-001  0.000000e+000
     vertex -1.994904e+000 -1.426784e-001  0.000000e+000
   endloop
 endfacet
 facet normal  0.000000e+000  0.000000e+000 -1.000000e+000
   outer loop
     vertex -2.846297e-001 -1.979643e+000  0.000000e+000
     vertex -4.251306e-001 -1.954294e+000  0.000000e+000
     vertex -1.994904e+000 -1.426784e-001  0.000000e+000
   endloop
 endfacet
 facet normal  0.000000e+000  0.000000e+000 -1.000000e+000
   outer loop
     vertex  1.954294e+000 -4.251306e-001  0.000000e+000
     vertex -4.251306e-001  1.954294e+000  0.000000e+000
     vertex  1.994904e+000 -1.426784e-001  0.000000e+000
   endloop
 endfacet
 facet normal  0.000000e+000  0.000000e+000 -1.000000e+000
   outer loop
     vertex -1.426784e-001 -1.994904e+000  0.000000e+000
     vertex -2.846297e-001 -1.979643e+000  0.000000e+000
     vertex -3.920108e-015 -2.000000e+000  0.000000e+000
   endloop
 endfacet
 facet normal -0.000000e+000  0.000000e+000 -1.000000e+000
   outer loop
     vertex  1.979643e+000 -2.846297e-001  0.000000e+000
     vertex  1.954294e+000 -4.251306e-001  0.000000e+000
     vertex  1.994904e+000 -1.426784e-001  0.000000e+000
   endloop
 endfacet
 facet normal  0.000000e+000  0.000000e+000 -1.000000e+000
   outer loop
     vertex -2.846297e-001 -1.979643e+000  0.000000e+000
     vertex -1.994904e+000 -1.426784e-001  0.000000e+000
     vertex -2.000000e+000  2.021286e-015  0.000000e+000
   endloop
 endfacet
 facet normal  0.000000e+000  0.000000e+000 -1.000000e+000
   outer loop
     vertex -3.920108e-015 -2.000000e+000  0.000000e+000
     vertex -2.846297e-001 -1.979643e+000  0.000000e+000
     vertex -2.000000e+000  2.021286e-015  0.000000e+000
   endloop
 endfacet
 facet normal  0.000000e+000  0.000000e+000 -1.000000e+000
   outer loop
     vertex -4.251306e-001  1.954294e+000  0.000000e+000
     vertex -2.846297e-001  1.979643e+000  0.000000e+000
     vertex -1.426784e-001  1.994904e+000  0.000000e+000
   endloop
 endfacet
 facet normal  0.000000e+000  0.000000e+000 -1.000000e+000
   outer loop
     vertex  1.994904e+000 -1.426784e-001  0.000000e+000
     vertex -4.251306e-001  1.954294e+000  0.000000e+000
     vertex  2.000000e+000 -4.898587e-016  0.000000e+000
   endloop
 endfacet
 facet normal  0.000000e+000  0.000000e+000 -1.000000e+000
   outer loop
     vertex -4.251306e-001  1.954294e+000  0.000000e+000
     vertex -1.426784e-001  1.994904e+000  0.000000e+000
     vertex  2.000000e+000 -4.898587e-016  0.000000e+000
   endloop
 endfacet
 facet normal  0.000000e+000  0.000000e+000 -1.000000e+000
   outer loop
     vertex  2.000000e+000 -4.898587e-016  0.000000e+000
     vertex -1.426784e-001  1.994904e+000  0.000000e+000
     vertex  1.994904e+000  1.426784e-001  0.000000e+000
   endloop
 endfacet
 facet normal  0.000000e+000  0.000000e+000 -1.000000e+000
   outer loop
     vertex -1.426784e-001  1.994904e+000  0.000000e+000
     vertex  5.665539e-016  2.000000e+000  0.000000e+000
     vertex  1.426784e-001  1.994904e+000  0.000000e+000
   endloop
 endfacet
 facet normal  0.000000e+000  0.000000e+000 -1.000000e+000
   outer loop
     vertex  1.994904e+000  1.426784e-001  0.000000e+000
     vertex -1.426784e-001  1.994904e+000  0.000000e+000
     vertex  1.426784e-001  1.994904e+000  0.000000e+000
   endloop
 endfacet
 facet normal  0.000000e+000  0.000000e+000 -1.000000e+000
   outer loop
     vertex -3.920108e-015 -2.000000e+000  0.000000e+000
     vertex -2.000000e+000  2.021286e-015  0.000000e+000
     vertex -1.979643e+000  2.846297e-001  0.000000e+000
   endloop
 endfacet
 facet normal  0.000000e+000  0.000000e+000 -1.000000e+000
   outer loop
     vertex -2.000000e+000  2.021286e-015  0.000000e+000
     vertex -1.994904e+000  1.426784e-001  0.000000e+000
     vertex -1.979643e+000  2.846297e-001  0.000000e+000
   endloop
 endfacet
 facet normal  0.000000e+000  0.000000e+000 -1.000000e+000
   outer loop
     vertex  1.994904e+000  1.426784e-001  0.000000e+000
     vertex  1.426784e-001  1.994904e+000  0.000000e+000
     vertex  1.979643e+000  2.846297e-001  0.000000e+000
   endloop
 endfacet
 facet normal -0.000000e+000  0.000000e+000 -1.000000e+000
   outer loop
     vertex  1.426784e-001 -1.994904e+000  0.000000e+000
     vertex -3.920108e-015 -2.000000e+000  0.000000e+000
     vertex -1.979643e+000  2.846297e-001  0.000000e+000
   endloop
 endfacet
 facet normal -0.000000e+000  0.000000e+000 -1.000000e+000
   outer loop
     vertex  2.846297e-001 -1.979643e+000  0.000000e+000
     vertex  1.426784e-001 -1.994904e+000  0.000000e+000
     vertex -1.979643e+000  2.846297e-001  0.000000e+000
   endloop
 endfacet
 facet normal  0.000000e+000  0.000000e+000 -1.000000e+000
   outer loop
     vertex  1.979643e+000  2.846297e-001  0.000000e+000
     vertex  1.426784e-001  1.994904e+000  0.000000e+000
     vertex  1.954294e+000  4.251306e-001  0.000000e+000
   endloop
 endfacet
 facet normal  0.000000e+000  0.000000e+000 -1.000000e+000
   outer loop
     vertex  2.846297e-001 -1.979643e+000  0.000000e+000
     vertex -1.979643e+000  2.846297e-001  0.000000e+000
     vertex -1.954294e+000  4.251306e-001  0.000000e+000
   endloop
 endfacet
 facet normal  0.000000e+000  0.000000e+000 -1.000000e+000
   outer loop
     vertex  1.426784e-001  1.994904e+000  0.000000e+000
     vertex  2.846297e-001  1.979643e+000  0.000000e+000
     vertex  4.251306e-001  1.954294e+000  0.000000e+000
   endloop
 endfacet
 facet normal  0.000000e+000  0.000000e+000 -1.000000e+000
   outer loop
     vertex  4.251306e-001  1.954294e+000  0.000000e+000
     vertex  5.634651e-001  1.918986e+000  0.000000e+000
     vertex  1.918986e+000  5.634651e-001  0.000000e+000
   endloop
 endfacet
 facet normal  0.000000e+000  0.000000e+000 -1.000000e+000
   outer loop
     vertex  1.426784e-001  1.994904e+000  0.000000e+000
     vertex  4.251306e-001  1.954294e+000  0.000000e+000
     vertex  1.918986e+000  5.634651e-001  0.000000e+000
   endloop
 endfacet
 facet normal  0.000000e+000  0.000000e+000 -1.000000e+000
   outer loop
     vertex  1.954294e+000  4.251306e-001  0.000000e+000
     vertex  1.426784e-001  1.994904e+000  0.000000e+000
     vertex  1.918986e+000  5.634651e-001  0.000000e+000
   endloop
 endfacet
 facet normal -0.000000e+000  0.000000e+000 -1.000000e+000
   outer loop
     vertex  5.634651e-001 -1.918986e+000  0.000000e+000
     vertex  4.251306e-001 -1.954294e+000  0.000000e+000
     vertex  6.989284e-001 -1.873899e+000  0.000000e+000
   endloop
 endfacet
 facet normal  0.000000e+000  0.000000e+000 -1.000000e+000
   outer loop
     vertex  2.846297e-001 -1.979643e+000  0.000000e+000
     vertex -1.954294e+000  4.251306e-001  0.000000e+000
     vertex  8.308300e-001 -1.819264e+000  0.000000e+000
   endloop
 endfacet
 facet normal -0.000000e+000 -0.000000e+000 -1.000000e+000
   outer loop
     vertex  1.873899e+000  6.989284e-001  0.000000e+000
     vertex  1.918986e+000  5.634651e-001  0.000000e+000
     vertex  1.819264e+000  8.308300e-001  0.000000e+000
   endloop
 endfacet
 facet normal -0.000000e+000  0.000000e+000 -1.000000e+000
   outer loop
     vertex  6.989284e-001 -1.873899e+000  0.000000e+000
     vertex  4.251306e-001 -1.954294e+000  0.000000e+000
     vertex  8.308300e-001 -1.819264e+000  0.000000e+000
   endloop
 endfacet
 facet normal  0.000000e+000  0.000000e+000 -1.000000e+000
   outer loop
     vertex  1.918986e+000  5.634651e-001  0.000000e+000
     vertex  5.634651e-001  1.918986e+000  0.000000e+000
     vertex  1.819264e+000  8.308300e-001  0.000000e+000
   endloop
 endfacet
 facet normal -0.000000e+000  0.000000e+000 -1.000000e+000
   outer loop
     vertex  4.251306e-001 -1.954294e+000  0.000000e+000
     vertex  2.846297e-001 -1.979643e+000  0.000000e+000
     vertex  8.308300e-001 -1.819264e+000  0.000000e+000
   endloop
 endfacet
 facet normal  0.000000e+000  0.000000e+000 -1.000000e+000
   outer loop
     vertex -1.918986e+000  5.634651e-001  0.000000e+000
     vertex -1.873899e+000  6.989284e-001  0.000000e+000
     vertex -1.819264e+000  8.308300e-001  0.000000e+000
   endloop
 endfacet
 facet normal  0.000000e+000  0.000000e+000 -1.000000e+000
   outer loop
     vertex -1.954294e+000  4.251306e-001  0.000000e+000
     vertex -1.918986e+000  5.634651e-001  0.000000e+000
     vertex -1.819264e+000  8.308300e-001  0.000000e+000
   endloop
 endfacet
 facet normal -0.000000e+000 -0.000000e+000 -1.000000e+000
   outer loop
     vertex  1.755358e+000  9.584980e-001  0.000000e+000
     vertex  1.819264e+000  8.308300e-001  0.000000e+000
     vertex  9.584980e-001  1.755358e+000  0.000000e+000
   endloop
 endfacet
 facet normal  0.000000e+000  0.000000e+000 -1.000000e+000
   outer loop
     vertex  6.989284e-001  1.873899e+000  0.000000e+000
     vertex  8.308300e-001  1.819264e+000  0.000000e+000
     vertex  9.584980e-001  1.755358e+000  0.000000e+000
   endloop
 endfacet
 facet normal  0.000000e+000  0.000000e+000 -1.000000e+000
   outer loop
     vertex  5.634651e-001  1.918986e+000  0.000000e+000
     vertex  6.989284e-001  1.873899e+000  0.000000e+000
     vertex  9.584980e-001  1.755358e+000  0.000000e+000
   endloop
 endfacet
 facet normal  0.000000e+000  0.000000e+000 -1.000000e+000
   outer loop
     vertex  1.819264e+000  8.308300e-001  0.000000e+000
     vertex  5.634651e-001  1.918986e+000  0.000000e+000
     vertex  9.584980e-001  1.755358e+000  0.000000e+000
   endloop
 endfacet
 facet normal  0.000000e+000  0.000000e+000 -1.000000e+000
   outer loop
     vertex -1.954294e+000  4.251306e-001  0.000000e+000
     vertex -1.819264e+000  8.308300e-001  0.000000e+000
     vertex -1.755358e+000  9.584980e-001  0.000000e+000
   endloop
 endfacet
 facet normal  0.000000e+000  0.000000e+000 -1.000000e+000
   outer loop
     vertex  8.308300e-001 -1.819264e+000  0.000000e+000
     vertex -1.954294e+000  4.251306e-001  0.000000e+000
     vertex -1.755358e+000  9.584980e-001  0.000000e+000
   endloop
 endfacet
endsolid
